<?xml version="1.0" standalone="no"?>
<!DOCTYPE svg PUBLIC "-//W3C//DTD SVG 1.1//EN" "http://www.w3.org/Graphics/SVG/1.1/DTD/svg11.dtd" >
<!--
2013-9-30: Created.
-->
<svg>
<metadata>
Created by iconfont
</metadata>
<defs>

<font id="iconfont" horiz-adv-x="1024" >
  <font-face
    font-family="iconfont"
    font-weight="500"
    font-stretch="normal"
    units-per-em="1024"
    ascent="896"
    descent="-128"
  />
    <missing-glyph />
    
    <glyph glyph-name="zhuantibaodao" unicode="&#58965;" d="M767.375 804.094h-126.375v-210.375l-127.313 85.781-127.313-82.313v206.906h-126.375c-92.813 0-168.844-76.031-168.844-168v-503.906c0-92.812 76.031-168 168.844-168h507.375c92.813 0 168.844 76.031 168.844 168v503.906c0.938 92.813-75.094 168-168.844 168zM678.969 352.313l-63.656-61.031c-4.406-4.406-6.187-8.813-4.406-15l15-84c1.781-15-12.375-25.594-25.594-16.781l-77.813 40.688c-4.406 1.781-10.594 1.781-16.781 0l-78.656-42.469c-12.375-6.188-27.375 4.406-25.594 16.781l15 84c0 6.188 0 10.594-4.406 15l-63.656 61.031c-10.594 10.594-4.406 27.375 8.813 29.156l86.625 12.375c6.187 0 10.594 4.406 12.375 8.813l37.969 77.813c6.188 12.375 25.594 12.375 31.781 0l37.969-77.813c1.781-4.406 8.813-8.813 12.375-8.813l86.625-12.375c20.438 0 24.938-16.781 16.031-27.375z"  horiz-adv-x="1024" />

    
    <glyph glyph-name="wenjian" unicode="&#59018;" d="M974.336 48.64l-24.064 111.104-218.112-45.568 24.064-111.104c4.096-19.456 24.064-32.256 44.032-28.16l145.408 30.208c20.48 4.608 33.28 23.552 28.672 43.52zM857.6 586.24l-218.624-45.056 84.992-390.656 218.112 45.056zM818.688 764.928c-4.096 19.456-24.064 32.256-44.032 28.16L629.248 762.88c-19.968-4.096-32.768-23.552-28.672-43.008l23.552-107.008 218.112 45.568-23.552 106.496zM333.312 12.8c0-19.968 16.896-36.352 37.376-36.352h139.264c20.48 0 37.376 16.384 37.376 36.352v107.008H333.312v-107.008zM333.312 578.048h213.504v-391.168H333.312zM509.952 792.064H370.688c-20.48 0-37.376-16.384-37.376-36.352v-106.496h213.504V755.712c0.512 19.968-16.384 36.352-36.864 36.352zM48.64 12.8c0-19.968 16.384-36.352 37.376-36.352H225.28c20.48 0 37.376 16.384 37.376 36.352v107.008H48.64v-107.008zM48.64 578.048h213.504v-391.168H48.64zM262.144 755.712c0 19.968-16.896 36.352-36.864 36.352H86.016c-20.48 0-37.376-16.384-37.376-36.352v-106.496h213.504V755.712z"  horiz-adv-x="1024" />

    
    <glyph glyph-name="zhinengfenxidaoru" unicode="&#59091;" d="M890.112 513.523c0 165.285-151.985 299.244-339.487 299.244-94.095 0-179.272-33.803-240.732-88.33-37.995-28.835-68.872-66.019-86.34-111.95-10.322-27.203-19.315-63.728-19.712-93.05-0.567-36.588 17.39-72.42 1.579-108.035-10.996-24.912-39.577-46-57.964-65.866 0 0-51.46-34.126 46.727-38.778 2.768-0.122 15.196-58.624 18.293-72.002-1.95-2.668-3.097-5.53-3.097-10.134 0-11.215 14.172-20.369 31.61-20.369h10.654c-23.032-3.12-39.64-12.11-39.64-24.509 0-8.577 10.912-19.89 27.254-26.68 0 0-20.144-65.002 9.737-79.339 5.13-2.23 11.73-2.915 20.136-1.47 42.405-2.307 118.295 0.7 160.498 0.7 0 0.77 22.2-117.647 22.2-117.647h381.289c0-0.606-36.645 272.492-36.645 272.492 67.085 95.738 90.318 181.44 91.577 253.071 1.338 10.727 2.063 21.575 2.063 32.652z m-200.92 50.717c-27.528 0-51.098 16.27-62.106 39.62l-51.481-29.722c6.443-13.471 10.352-28.379 10.352-44.31 0-21.255-6.452-40.992-17.464-57.41l96.581-55.76c6.213 6.12 14.71 9.934 24.119 9.934 19.003 0 34.411-15.408 34.411-34.412 0-19.006-15.408-34.411-34.411-34.411-19.006 0-34.412 15.405-34.412 34.411 0 3.353 1.012 6.388 1.907 9.452l-99.238 57.294c-18.812-19.822-45.243-32.334-74.728-32.334-57.015 0-103.235 46.22-103.235 103.235s46.22 103.235 103.235 103.235c34.92 0 65.66-17.449 84.343-43.988l54.565 31.502c-0.746 4.063-1.26 8.21-1.26 12.486 0 38.01 30.81 68.824 68.823 68.824 38.01 0 68.823-30.814 68.823-68.824s-30.814-68.822-68.823-68.822z"  horiz-adv-x="1024" />

    
    <glyph glyph-name="gaikuang" unicode="&#58905;" d="M128 832h768a64 64 0 0 0 64-64v-576a64 64 0 0 0-64-64H128a64 64 0 0 0-64 64V768a64 64 0 0 0 64 64z m64-896v96h640V-64H192z m416 402.752l246.656 246.592-45.312 45.312L608 429.248 414.208 623.04 199.68 372.8l48.64-41.6 169.472 197.76L608 338.752z"  horiz-adv-x="1024" />

    
    <glyph glyph-name="tiaoduyuan" unicode="&#58906;" d="M916.114 442.74V873.851l269.445-125.67V317.07z m-107.778 76.037a215.556 215.556 0 1 1-431.113 0 378.948 378.948 0 0 1 4.096-53.89h-57.985V896h538.891v-431.113h-57.93a378.948 378.948 0 0 1 4.041 53.89zM0 742.632L269.445 870.133v-438.98L0 303.65zM485.002 169.36v91.288s-177.834 274.834 34.866 403.629a177.08 177.08 0 0 0 146.2 0c212.54-128.525 34.867-403.63 34.867-403.63v-91.287c285.612-116.562 322.742-183.816 322.742-183.816v-113.436H162.098V-14.456s37.292 67.308 322.904 183.816z"  horiz-adv-x="1185" />

    
    <glyph glyph-name="tupian" unicode="&#59045;" d="M877.67334065 869.92602933L156.03921937 869.92602933c-18.10773605 0-131.19688552 0-131.19688552-129.470032l0-712.08517768c0-129.46665256 131.19688552-129.46665256 131.19688552-129.46665256l721.63412128 0c37.83531265 0 64.48719614 10.89505646 83.65492567 26.2700167 1.22670711 0.90116266 2.46017421 1.80345143 3.62042065 2.77332809 4.39542087 3.78600927 8.40221497 7.84462012 11.95166937 12.04403843 1.02281953 1.21656986 1.86878598 2.49847317 2.81388039 3.78150371 28.93858407 37.3723402 29.15486332 84.59663951 29.15486334 84.59663951L1008.86910007 740.45487011C1008.87022618 869.92602933 895.81825065 869.92602933 877.67334065 869.92602933zM163.63489406-27.599263550000046c-71.10060359-0.06871401-68.92091596 65.68912208-68.92091596 65.68912208l0 30.91776246c29.50406393 26.26776337 121.73805653 108.60811734 161.7530568 148.13423679 5.16929387 5.06453424 12.30762888 11.90097874 20.14774344 11.10232348 8.26704028-0.03379339 15.82554214-7.14734614 15.89876169-7.14734615l2.63590119-2.53564602c0.87525428-0.76148241 88.15510615-77.41324775 130.1413987-118.88249774 25.59865002-25.29338115 51.83036777-29.04334479 68.18083636-30.12023331 36.18167871 0.45508745 60.1627426 24.32688505 60.33959568 24.74254631l67.90485534 58.33563503c6.99752756 6.52103839 13.53771543 5.1997078 23.31420275-4.41231701 25.38800354-25.08836746 113.19165576-115.65408331 171.66697104-176.10069196C663.66749703-27.805404459999977 222.25101569-27.599263550000046 163.63489406-27.599263550000046zM933.47783634 35.72993838000002c0 0-0.17572696-36.75053802-28.62092464-54.37840436-47.33581894 49.03225741-177.29811124 183.49698354-210.14436255 215.90617077-24.43840358 24.12074413-49.6822213 29.56714514-65.01550315 28.76623655-33.0568978-0.45058077-54.43360057-20.92274254-55.94868038-22.69240059l-68.00736272-58.47306193c-13.78328252-12.90915436-25.24719718-1.62997779-30.76794498 3.85246994-41.56161905 41.05133649-122.12217774 111.97846646-132.21407226 120.82562941-6.68212035 6.59425687-30.2418913 27.24214561-64.24275627 28.03967475-17.79458219 0.86624205-44.72807947-4.68491859-71.80576369-31.40551718-25.21227657-24.87771988-73.56303003-68.87811144-112.03140932-103.47487021L94.67905749 736.05156422c0.03379339 63.67502309 46.69937286 63.67502309 64.52436898 63.67502309l709.7511659 0c17.86329618 0 64.52436899 0 64.52436898-63.67502309L933.47896246 35.72993838000002zM680.82338088 672.58268206c-91.84761916 0-166.57089673-73.84351772-166.57089673-164.5827072 0-90.74256893 74.76157653-164.58608665 166.57089673-164.58608667 91.84874638 0 166.57315007 73.84464384 166.57315007 164.58608667C847.39652986 598.7391654400001 772.67325338 672.58268206 680.82338088 672.58268206zM680.82338088 412.81580107c-53.0593282 0-96.23966059 42.68356653-96.23966058 95.18530099 0 52.50286059 43.1814596 95.18304766 96.23966058 95.18304766 53.06495989 0 96.24641947-42.67906096 96.24641949-95.18304766C777.06980037 455.49936761 733.88946689 412.81580107 680.82338088 412.81580107z"  horiz-adv-x="1024" />

    
    <glyph glyph-name="shipin1" unicode="&#58902;" d="M826.38786596 846.335097H197.61213404C95.8984127 846.335097 12.67809524 763.11477954 12.67809524 661.4010582v-554.8021164c0-101.71372135 83.22031746-184.93403881 184.9340388-184.9340388h628.77573192c101.71372135 0 184.93403881 83.22031746 184.9340388 184.9340388V661.4010582c0 101.71372135-83.22031746 184.93403881-184.9340388 184.9340388zM86.65171076 143.58574955999995V624.4142504399999h850.69657848v-480.82850088H86.65171076z m110.96042328 628.77573192h628.77573192c48.08285008 0 88.76833862-31.43878659 103.56306174-73.97361552H94.0490723c14.7947231 42.53482892 55.48021164 73.97361552 103.56306174 73.97361552z m628.77573192-776.72296296H197.61213404c-48.08285008 0-88.76833862 31.43878659-103.56306174 73.97361552h837.75119578c-16.64406349-42.53482892-57.32955203-73.97361552-105.41240212-73.97361552zM647.00184833 446.87757319l-151.64591182 90.61767902c-11.09604233 7.39736155-24.04142505 11.09604233-38.83614815 11.09604232-40.68548854 0-73.97361552-33.28812698-73.97361552-73.97361552V291.5329806c0-12.94538271 3.69868078-25.89076543 11.09604232-38.83614814 9.24670194-16.64406349 25.89076543-29.58944621 46.23350971-33.28812699 5.54802116-1.84934039 12.94538271-1.84934039 18.49340388-1.84934039 12.94538271 0 25.89076543 3.69868078 38.83614815 11.09604233l151.64591181 90.61767902c11.09604233 5.54802116 18.49340389 14.7947231 25.89076543 25.89076543 18.49340389 35.13746738 7.39736155 81.37097707-27.74010581 101.71372133zM608.16570018 384L456.51978836 293.38232099000004V476.4670194l151.64591182-92.4670194z"  horiz-adv-x="1024" />

    
    <glyph glyph-name="jiantou" unicode="&#58898;" d="M131.365-128H0l321.829 512L0 896h129.975L585.143 384l-453.778-512ZM716.507-128H585.143l321.829 512L585.143 896h129.975L1170.29 384l-453.778-512Z"  horiz-adv-x="1170" />

    
    <glyph glyph-name="touxiang-nv" unicode="&#58896;" d="M510.853 893.70515C228.686 893.70515 0 665.019 0 382.85299999999995s228.686-510.853 510.853-510.853 510.853 228.686 510.853 510.853-228.686 510.853-510.853 510.853Zm0-993.768S332.254-116.73000000000002 210.427 5.100999999999999c53.2803 58.5685 186.082 75.5303 186.082 75.5303l-0.698432 53.2803S186.581 124.73199999999997 222.101 151.67200000000002c52.6817 46.6951 49.9877 145.473 49.9877 145.473s8.18162 166.127 56.5729 230.283c45.7971 60.7635 100.674 59.5662 100.674 59.5662s88.2019 58.8678 178.998 10.8756 124.321-121.028 128.312-238.165c3.99104-117.137 47.3936-200.649 47.3936-200.649s-2.59417-11.1749-53.2803-19.7556-107.958-0.698431-107.958-0.698431v-53.2803s122.924-23.0482 189.375-79.6212c-147.369-119.731-301.323-105.762-301.323-105.762ZM701.923 306.32399999999995c3.19283 34.9216-28.3364 34.9216-28.3364 34.9216s-90.7961 7.28364-133.6 84.2109c-16.463-26.9395 1.99552-53.9788 1.99552-53.9788s-75.6301-4.58969-102.669 90.7961c0 0-7.28364 11.1749-24.3453-41.407-17.0617-52.6817-63.8566-76.3286-63.8566-76.3286s-39.5113-9.87781-30.2321-39.5113 31.629-49.3891 54.5774-55.2758c19.0572-56.5729 51.9832-130.307 135.296-136.194C611.626 115.553 644.552 248.45399999999995 644.552 248.45399999999995s42.2052 1.19731 57.3711 57.87Z"  horiz-adv-x="1024" />

    
    <glyph glyph-name="touxiang-nan" unicode="&#58897;" d="M512 896C229.2 896 0 666.8 0 384s229.2-512 512-512 512 229.2 512 512S794.8 896 512 896Zm0-997.3c-191 0-301.5 102.3-332.3 131.6 14.1 30 40.8 61.1 71.9 82.8 37.5 26.1 85.7 51.7 141.7 68 8.1-42 34.1-163.6 71.9-219.4 32.2 95.8 38.8 117 38.8 117l-32.2 25.6v24.9l45.6 27.1c-45.6 23.8-85.3 53.9-85.3 53.9v55.3c-33.5 21.6-60.1 57.1-74.9 103.9-1.7-0.3-3.6-0.5-5.6-0.5-27.1 0-51.6 46.2-51.6 73.3 0 20.7 12.9 38.5 31.1 45.6 2.5 1-9.8 37.4 2.6 76.8 10 31.7 42.5 66.1 61.4 79.9 14.4 10.5 41.7 25.2 68 12.8 21.9 24.9 63.4 20.2 78.3 20.2 38.4 0 73.1-13.4 97.3-29 31.4-26.3 40.2-14.9 43.9-18.6 2.6-2.6-6.9-17.9-21.4-15 15.8-18.3 24-35.3 28.6-59.6 3.9-20.5 4.1-64.7 8.4-65.9 20.6-5.8 35.6-24.8 35.6-47.2 0-27.1-24.5-73.3-51.6-73.3-2.8 0-5.1 0.3-7.2 0.9-13.5-47.9-38.2-81.9-69.9-102.9V210.20000000000004s-56.2-40.1-87.4-53.9l40.7-30V107l-30.7-28.3 38-125.8s54 105 76.8 231.7c34.1-8.5 64.4-20.6 94.3-35.7 44-22.3 94.9-67.8 118.3-108.3C811.8-0.7999999999999545 703-101.29999999999995 512-101.29999999999995Z"  horiz-adv-x="1024" />

    
    <glyph glyph-name="touxiang-nv1" unicode="&#58892;" d="M510.852577 382.852577m-510.852577 0a510.852577 510.852577 0 1 1 1021.705154 0 510.852577 510.852577 0 1 1-1021.705154 0ZM812.275553 5.599922c-66.450745 56.572932-189.374647 79.621163-189.374647 79.621163v53.280328s57.271363-7.882296 107.957517 0.698431 53.280327 19.755627 53.280328 19.755627-43.402514 83.612199-47.39355 200.649323c-3.991036 117.1369-37.515736 190.172854-128.311799 238.165059s-178.997954-10.875572-178.997954-10.875573-54.876742 1.197311-100.673877-59.566208c-48.391309-64.1559-56.572932-230.282763-56.572932-230.282764s2.594173-98.678359-49.987723-145.473253c-35.520218-26.939491 173.709831-17.760109 173.709831-17.760109l0.698432-53.280328S263.807464 63.569716 210.527136 5.001267c153.654877-118.433986 300.325441-105.064016 300.325441-105.064017s153.954204-13.968625 301.422976 105.662672zM510.852577 113.457663c-83.312871 5.886778-116.238916 79.621163-135.296112 136.194096-23.048232 5.886778-45.398032 25.642405-54.577414 55.275845-9.179382 29.633441 30.232096 39.511254 30.232096 39.511254s46.695118 23.646887 63.856572 76.328559c17.061678 52.681672 24.345318 41.406996 24.345318 41.406996 26.939491-95.385755 102.669395-90.796064 102.669395-90.796064s-18.45854 26.939491-1.995518 53.978759c42.803859-77.02699 133.599922-84.210855 133.599922-84.210854s31.529183 0 28.336354-34.921563c-15.165936-56.572932-57.271363-57.870019-57.271363-57.870019S611.726006 115.453181 510.852577 113.457663z"  horiz-adv-x="1024" />

    
    <glyph glyph-name="guanggao" unicode="&#58901;" d="M309.012 570.46h132.613l32.5478-87.1578h45.3274l-121.231 318.31h-43.9296l-121.364-318.31h45.4554l30.5818 87.1578Zm60.7078 168.284c1.8432 5.21216 3.62496 12.585 5.08416 22.2515h1.01888c1.8432-10.5574 3.49696-17.9251 4.96128-22.2515l48.0614-132.362h-106.803l47.6774 132.362Zm406.999-210.816c31.913 29.7523 47.9334 69.2326 47.9334 118.564 0 47.2371-16.0205 84.9357-47.9334 113.034-32.041 28.0371-72.1562 42.0864-120.346 42.0864h-90.9107v-318.377h87.5418c50.4781 0.06656 91.6736 14.9453 123.715 44.6925Zm-170.122-8.26368V765.061h48.0666c38.0211 0 68.6592-9.97888 91.863-30.0032 23.3318-20.0294 35.031-49.9098 35.031-89.641 0-39.7363-11.4432-70.569-34.0173-92.6925-22.697-22.0621-54.2925-33.1213-94.7251-33.1213h-46.2182v0.06144ZM80.0154 814.2029c0 21.7446 7.43936 40.1766 22.1235 55.6288C116.89 885.0278 134.753 892.59008 155.858 892.59008h715.331c10.4243 0 20.4749-2.0992 29.9469-6.16448 9.47712-4.0704 17.7357-9.6 24.7296-16.5939a78.8122 78.8122 0 0 0 16.1434-25.1136c4.0704-9.472 5.97504-19.7069 5.97504-30.5152v-427.213h-22.5638c-5.97504 0-11.0592-0.19456-15.2576-0.37888-4.32128-0.384-9.088-0.512-14.4282-0.512H132.147c-5.34016 0-9.78944 0.128-13.6653 0.512a289.464 289.464 0 0 1-13.8598 0.37888h-24.6016v427.213h-0.00512Zm497.531-877.763c0-19.7069-6.60992-34.7085-19.7683-45.2659-13.1021-10.4909-27.9091-15.7645-44.4416-15.7645-17.6077 0-32.041 6.35392-43.2282 18.7546-11.1923 12.585-16.7834 27.7862-16.7834 45.2659V191.75400000000002h124.16v-255.314h0.06144Zm407.378 330.583c-6.16448-6.80448-15.8925-10.1734-29.0509-10.1734H68.1318c-13.1584 0-22.825 3.17952-29.056 9.60512-6.23104 6.54336-9.344 13.3478-9.344 20.9152 0 9.40544 3.49696 16.9728 10.3014 22.4358 6.80448 5.46816 16.3994 8.07936 28.0986 8.07936h887.803c11.1923 0 20.3418-2.0992 27.4637-6.1696 7.31136-4.00384 10.9363-10.8646 10.9363-20.3469-0.06656-9.40544-3.1744-17.4797-9.41056-24.3456Z"  horiz-adv-x="1024" />

    
    <glyph glyph-name="chengshi" unicode="&#59142;" d="M1204.22-125.53999999999996L63.2149-125s-122.812-5.46133-25.4635 86.9035a608.734 608.734 0 0 0 89.088 38.912 152.917 152.917 0 0 0-13.1755 62.1909c0 79.6672 59.8016 144.247 133.53 144.247s133.53-64.5803 133.53-144.247l-0.2048-4.98347 26.0779 3.20853V807.2533c0 49.0155 36.2496 87.8592 85.4016 87.8592h511.932c49.152 0 83.4219-38.8437 83.4219-87.8592v-787.797c59.8016-16.7936 111.138-36.7957 151.347-59.2555 146.5-97.6213-34.4747-85.7429-34.4747-85.7429ZM692.087 697.481a43.5541 43.5541 0 0 1-43.8955 43.8955H560.333a43.5541 43.5541 0 0 1-43.9637-43.8955v-120.832c0-24.576 30.3104-43.9637 54.9547-43.9637h76.8683c24.576 0 43.8955 19.456 43.8955 43.9637v120.832Zm0-318.532a43.5541 43.5541 0 0 1-43.8955 43.8955H560.333a43.5541 43.5541 0 0 1-43.9637-43.8955v-120.832c0-24.5077 30.3104-43.8955 54.9547-43.8955h76.8683c24.576 0 43.8955 19.3877 43.8955 43.8955v120.832Zm285.491 318.532a43.5541 43.5541 0 0 1-43.8955 43.8955H845.824a43.5541 43.5541 0 0 1-43.9637-43.8955v-120.832c0-24.576 30.3787-43.9637 54.9547-43.9637h76.8683c24.576 0 43.8955 19.456 43.8955 43.9637v120.832Zm0-318.532a43.5541 43.5541 0 0 1-43.8955 43.8955H845.824a43.5541 43.5541 0 0 1-43.9637-43.8955v-120.832c0-24.5077 30.3787-43.8955 54.9547-43.8955h76.8683c24.576 0 43.8955 19.3877 43.8955 43.8955v120.832Z"  horiz-adv-x="1297" />

    
    <glyph glyph-name="jiemianzhixuxuanzhong" unicode="&#58889;" d="M307.2 341.312l81.088-51.2L332.8 256 512 145.088 691.2 256l-55.488 34.112 81.088 51.2L853.312 256 512 42.688 170.688 256 307.2 341.312zM853.312 512L512 298.688 170.688 512 512 725.312 853.312 512zM512 622.912L332.8 512 512 401.088 691.2 512 512 622.912z"  horiz-adv-x="1024" />

    
    <glyph glyph-name="shigong" unicode="&#59157;" d="M97.5238-6.095000000000027h828.952v-97.5238H97.5238ZM877.714 42.66700000000003v48.7619h-60.9524L633.905 871.619H390.095L207.238 91.42899999999997H146.286v-48.7619h731.429Zm-597.333 146.286l46.3238 195.048h373.029l46.3238-195.048H280.381Zm382.781 341.333H360.838l46.3238 195.048h212.114l43.8857-195.048Z"  horiz-adv-x="1024" />

    
    <glyph glyph-name="tufashijian" unicode="&#59492;" d="M512 652.0064c176.1792 0 318.976-142.848 318.976-319.0016v-233.0112c0-17.664-14.3104-32-32-32H225.024c-17.6896 0-32 14.336-32 32v233.0112c0 176.1792 142.7968 318.976 318.976 318.976z m-28.0064 176h56.0128c4.4032 0 7.9872-3.584 7.9872-8.0128v-96c0-4.4032-3.584-7.9872-7.9872-7.9872h-56.0128a7.9872 7.9872 0 0 0-7.9872 7.9872v96c0 4.4288 3.584 8.0128 7.9872 8.0128zM177.2544 704.3584a7.9872 7.9872 0 0 0 11.3152 0l67.8912-67.8912a8.0128 8.0128 0 0 0 0-11.3152L216.832 585.5488a7.9872 7.9872 0 0 0-11.3152 0L137.6512 653.44a7.9872 7.9872 0 0 0 0 11.3152l39.6032 39.5776z m669.5936 0l39.6032-39.6032a7.9872 7.9872 0 0 0 0-11.3152l-67.8912-67.8912a8.0128 8.0128 0 0 0-11.3152 0l-39.5776 39.6032a8.0128 8.0128 0 0 0 0 11.3152l67.8656 67.8656a7.9872 7.9872 0 0 0 11.3152 0zM192 3.968h640c17.664 0 32-14.336 32-32v-23.9872c0-4.4288-3.584-8.0128-8.0128-8.0128H168.0384a7.9872 7.9872 0 0 0-8.0128 8.0128v23.9872c0 17.664 14.336 32 32 32z m147.9936 317.0048v-253.0048h64V321.024h-64z"  horiz-adv-x="1024" />

    
    <glyph glyph-name="other" unicode="&#58882;" d="M365.568 751.514H167.424C131.43 751.514 102.4 722.483 102.4 686.643v-198.246c0-35.8912 29.0304-64.9728 64.9728-64.9728H365.568c35.8912 0 64.9216 29.0816 64.9216 65.024V686.592c0 35.84-29.0816 64.9216-64.9216 64.9216Zm304.998 23.04l-140.186-140.134a64.9216 64.9216 0 0 1 0-91.8528l140.186-140.186a64.9216 64.9216 0 0 1 91.8528 0l140.134 140.186a64.9216 64.9216 0 0 1 0 91.8528l-140.134 140.134a64.9216 64.9216 0 0 1-91.8528 0ZM365.568 302.592H167.373c-35.9424 0-64.9728-29.0816-64.9728-64.9216v-198.246C102.4 3.42999999999995 131.43-25.600000000000022 167.373-25.600000000000022H365.568c35.8912 0 64.9216 29.0304 64.9216 64.9728V237.56799999999998c0 35.84-29.0816 64.9216-64.9216 64.9216Zm449.024 0h-198.298c-35.9424 0-65.024-29.0304-65.024-64.9216v-198.246c0-35.9424 29.0816-64.9728 65.024-64.9728h198.195c35.9424 0 65.024 29.0304 65.024 64.9728V237.56799999999998c0 35.84-29.0816 64.9216-64.9216 64.9216Z"  horiz-adv-x="1024" />

    
    <glyph glyph-name="xingzhengzhifa" unicode="&#59104;" d="M329.29384396 891.7819031l361.55629904 0.46892423-65.40943838-95.08592719-230.3868758 0.60936921L329.29384396 891.7819031 329.29384396 891.7819031zM396.7183456 777.84732491l228.39386728 0c-0.56180258-58.09201036 1.73532115-122.84297261-70.77790832-152.94463579-45.13113198-18.70820604-90.47119827-6.28288328-108.45354131 7.22073175C394.06951282 671.03946019 397.14085789 723.92803991 396.7183456 777.84732491L396.7183456 777.84732491zM166.40227527 464.88008727l3.56350365-561.27869168c0 0-7.12700726-43.60411901 25.50748717 12.9174609l93.54254332 162.03874263c6.94012538 11.97961243-0.25768626 222.47769373 3.16536564 209.74710563 5.36846993-20.27863762 20.60679929-148.72432109 24.66362182-148.72432109l40.77019311-0.04642782 314.482072 425.21415433-408.84526562-0.93784734C190.64338483 563.66981672 162.53465533 518.1191986700001 166.40227527 464.88008727L166.40227527 464.88008727zM732.1124947 564.2791847999999c1.64130061 2.15658573 121.44117593 11.39345828 120.12836705-78.32421904-0.84502571-54.90472051 5.69696279-590.1848315 5.69696279-590.18483148s0.79743527-15.49654191-13.52738361 5.36824986c-14.25401339 20.88800571-108.40711121 177.41805349-108.40711122 177.4180535l-3.23501076 212.27975882c0 0-6.14269012-20.51309862-15.98817419-71.24393225-9.75262385-50.75520789-16.05897967-80.05946987-16.05897967-80.05946986l-288.05991393 0.28088996L732.1124947 564.2791847999999 732.1124947 564.2791847999999zM326.22249891 88.98999386000003l371.61536109 0 129.52928414-213.14680404-607.93251054-0.09401715c-6.49439805 0-7.76077682 10.43239589 0.23447118 24.52216623L326.22249891 88.98999386000003z"  horiz-adv-x="1024" />

    
    <glyph glyph-name="jiankong" unicode="&#58946;" d="M893.7 643c-20.9 49.3-50.7 93.6-88.8 131.7-38 38-82.3 67.9-131.7 88.8C622.2 885 567.9 896 512 896c-55.9 0-110.2-11-161.2-32.6-49.3-20.9-93.6-50.7-131.7-88.8-38-38-67.9-82.3-88.8-131.7-21.6-51.1-32.6-105.3-32.6-161.2 0-55.9 11-110.2 32.6-161.2 20.9-49.3 50.7-93.6 88.8-131.7 38-38 82.3-67.9 131.7-88.8 12.1-5.1 24.4-9.6 36.9-13.6l-57.1-141.6H198.3c-20.1 0-36.4-16.3-36.4-36.4 0-20.1 16.3-36.4 36.4-36.4h627.5c20.1 0 36.4 16.3 36.4 36.4 0 20.1-16.3 36.4-36.4 36.4H700l-56.7 143.9c26.3 8.8 51.7 20.2 75.8 34.1 61.8 35.8 113.7 87.2 150 148.7 37.4 63.4 57.1 136.1 57.1 210.1 0 56.1-10.9 110.3-32.5 161.4zM513.5 827.1c28.6 0 51.9-23.3 51.9-51.9s-23.3-51.9-51.9-51.9c-28.6 0-51.9 23.3-51.9 51.9s23.2 51.9 51.9 51.9z m-1.4-649c-128.2 0-232.5 104.3-232.5 232.5s104.3 232.5 232.5 232.5 232.5-104.3 232.5-232.5-104.3-232.5-232.5-232.5zM512 560c-82.4 0-149.5-67-149.5-149.5S429.5 261 512 261c82.4 0 149.5 67 149.5 149.5S594.4 560 512 560z"  horiz-adv-x="1024" />

    
    <glyph glyph-name="jichu-zhifa" unicode="&#59276;" d="M738.62510613 716.87163733h-122.23947306v62.08389867h122.23947306c19.20231787 0 34.68283733-13.83537813 34.6828384-31.0419488v-0.4315136c0-16.78854293-15.48052053-30.61043627-34.6828384-30.61043627z m-174.22327573 62.08389867h-104.8845696v-62.08389867h104.41260267v62.08389867h0.48545173z m434.61425493-336.57995093v-19.7551936c0-12.58129387-11.2463008-22.65442027-25.29743466-22.6544192l-33.72541974-5.016336c10.76084907-19.32368107 17.34141867-40.724016 17.34141974-66.33160214l12.6217472-130.49215466c0-3.80270613-0.43151253-7.56495787-0.90347947-11.3272096 0.47196693-2.56210667 0.90347947-5.0567904 0.90347947-7.57844267v-156.96276587c0-22.24987627-20.09231253-40.29250347-45.403232-40.29250346h-69.31173654c-24.811984 0-45.44368747 18.0291424-45.44368746 40.30598826V72.63657599999999H215.03831467v-50.36562987c0-22.27684587-20.14625173-40.30598827-45.40323307-40.30598826H100.30986027c-24.811984 0-45.44368747 18.0291424-45.44368747 40.30598826v156.96276587c0 2.49468267 0.47196693 5.016336 0.94393387 7.55147307-0.47196693 3.77573653-0.94393387 7.53798827-0.94393387 11.3272096l12.67568747 130.50563946c0 25.21652693 6.05466347 47.00792107 17.28747946 66.33160214l-34.62889813 5.44784853c-14.06461867 0-25.29743573 10.0731264-25.29743573 22.6544192v19.7147392c0 12.63523307 11.232816 22.65442027 25.29743573 22.65442027h91.3188864c4.6657312 0 8.89995093-1.24059947 12.62174827-3.3172544l41.2094688 111.1954432c11.2463008 52.4557696 53.8851552 93.1797856 123.65537386 93.17978666H705.3716544c60.8837536 0 110.52120533-30.20589333 123.62840533-93.17978666l41.20946774-110.77741547c3.76225173 1.6586272 7.51101867 2.89922667 11.704784 2.89922667h91.3323712c14.5231008-0.39105813 25.76940267-10.46418453 25.76940266-23.0454784z m-773.2169216 46.144896l-11.2463008-39.87447574c2.34635093-29.356352 42.16688747-52.4557696 74.9348864-52.4557696h445.847072c32.768 0 72.1300544 23.0994176 74.94837227 52.4557696l-11.24630187 39.87447574-30.9205856 73.4650464c-2.80483307 13.83537813-8.89995093 16.77505813-19.20231786 28.1022688H276.42100373c-9.8304-11.3272096-16.88293653-13.83537813-19.6877696-28.1022688l-0.47196693-1.6855968-30.43513387-71.7794496z m89.94344-280.3214752c0 33.98162987-30.9205856 61.26132693-68.8397696 61.26132693-37.95963733 0-68.8397696-27.27969707-68.8397696-61.26132693 0-34.03556907 30.8801312-61.31526613 68.8397696-61.31526614 37.919184 0 68.8397696 27.7112096 68.8397696 61.31526614z m314.6941632 35.23571306c0 10.0731264-9.37191787 18.0291424-20.57776426 18.0291424H417.35037333c-11.232816 0-20.57776427-7.956016-20.57776426-18.0291424v-51.20168533c0-10.0731264 9.34494827-18.0695968 20.57776426-18.0695968H610.304c11.2463008 0 20.63170347 7.9964704 20.63170347 18.0695968v51.20168533h-0.48545174z m215.89122667-35.23571306c0 33.98162987-30.9071008 61.26132693-68.8262848 61.26132693-37.919184 0-68.8397696-27.27969707-68.8397696-61.26132693 0-34.03556907 30.9205856-61.31526613 68.8397696-61.31526614 37.919184 0 68.8397696 27.7112096 68.8397696 61.31526614z m-561.50597547 508.67263146h122.23947307v62.08389867h-121.76750613c-19.18883307 0-34.6693536-13.83537813-34.66935254-31.0419488v-0.4315136c0-16.78854293 15.48052053-30.61043627 34.1973856-30.61043627z"  horiz-adv-x="1024" />

    
    <glyph glyph-name="daochu" unicode="&#58964;" d="M848.00046821 448.13215443c-9.16391874 0-15.2731979 3.05340389-21.38247705 9.16268304-12.21855832 12.21855832-12.21855832 30.5463958 0 42.76371841l106.9086782 103.85527433-106.9086782 103.85403862c-12.21855832 12.21855832-12.21855832 30.5463958 0 42.76371843 12.21855832 12.21855832 30.5463958 12.21855832 42.76371841 0l119.12723653-116.07259695c6.10927916-6.10927916 12.21855832-18.32783748 12.21855831-30.5463958s-6.10927916-24.43588094-12.21855831-30.5451601l-119.12723653-116.07259694c-6.10927916-6.10927916-12.21855832-9.16268304-21.38124136-9.16268304zM939.63718421-98.63226630999998H84.36281579c-33.59856399 0-61.09032021 27.49175622-61.0903202 61.09155589V817.73118662c0 33.59979967 27.49175622 61.09155589 61.09155589 61.09155589h549.81782463c18.32660178 0 30.5463958-12.21855832 30.54639579-30.54639579s-12.21979402-30.54516011-30.54639579-30.5451601H84.36405148v-855.27189704h855.27189704V267.91336199c0 18.32783748 12.21855832 30.5463958 30.54639581 30.5463958s30.54516011-12.21855832 30.54516008-30.5463958v-305.45407241c0-33.59979967-27.49175622-61.09155589-61.09155589-61.09155589zM298.18140789 161.00468378999994c-18.32660178 0-30.54516011 12.21732263-30.5451601 30.54516009 0 244.36375221 198.54539422 442.90914642 442.90914643 442.90914643 18.32783748 0 30.5463958-12.21855832 30.54639578-30.5463958s-12.21855832-30.54516011-30.54639578-30.5451601c-210.76395253 0-381.81759051-171.053638-381.81759053-381.81759053 0-18.32783748-12.21855832-30.5463958-30.5463958-30.54639578zM909.09078842 573.36743441H695.27219631c-18.32660178 0-30.54516011 12.21855832-30.54516011 30.5463958s12.21855832 30.54516011 30.54639581 30.5451601H909.09078842c18.32783748 0 30.5463958-12.21855832 30.54639579-30.5463958s-12.21855832-30.54516011-30.54639579-30.5451601z"  horiz-adv-x="1024" />

    
    <glyph glyph-name="dianchi" unicode="&#58924;" d="M161.77422677-40.514783009999974c0-46.91061191 37.99444025-84.90272427 84.90272427-84.90272426l530.64377003 0c46.90944797 0 84.90272427 37.99211235 84.90272426 84.90272426l0 764.12684288c0 46.90944797-37.99444025 84.90039523-84.90272426 84.90039524l-106.12898702 0L671.19173405 846.71763229c0 25.89974301-20.81177373 46.70103893-46.70103894 46.70103893L399.50697586 893.41867122c-25.88926521 0-46.70103893-20.80129593-46.70103893-46.70103893l0-38.20401323-106.12898703 0c-46.90944797 0-84.90272427-37.99211235-84.90272427-84.90039524L161.77422677-40.514783009999974zM314.60425273 150.51459924999995l394.7903306 0c25.88926521 0 46.70103893-20.7989669 46.70103893-46.6987099l0-76.40453461c0-25.90207203-20.81177373-46.70103893-46.70103893-46.70103893L314.60425273-19.289684190000003c-25.88926521 0-46.70103893 20.7989669-46.70103894 46.70103893l0 76.40453461C267.90321379 129.71563234999996 288.71498752 150.51459924999995 314.60425273 150.51459924999995z"  horiz-adv-x="1024" />

    
    <glyph glyph-name="shuiling" unicode="&#59000;" d="M809.09653333 505.33641481c-25.63185778 39.03032889-53.59388445 76.89557333-82.72099555 114.17827555-49.51608889 62.91456-101.94488889 124.08149333-157.2864 182.91825779-4.07779555 4.66033778-7.57304889 8.15559111-11.06830223 11.65084443l-4.07779555 4.07779557L529.47626667 843.2109037l-24.46677334-25.04931555-4.07779555-4.07779557c-16.89372445-17.47626667-33.78744889-35.53507555-50.09863111-54.17642666-41.36049778-45.43829333-80.97336889-92.62421333-118.25607112-140.39267556-29.12711111-37.28270222-56.50659555-75.14794667-82.72099555-114.17827555-59.41930667-92.04167111-93.20675555-168.93724445-93.20675555-228.35655111 0-188.74368 167.18961778-342.53482667 373.40956444-342.53482667 206.21994667 0 372.82702222 153.20860445 372.82702222 342.53482667 0 59.41930667-33.78744889 136.31488-93.78929778 228.35655111z m-279.03772444-477.10208c-153.79114667 0-279.03772445 115.34336-279.03772444 257.48366222 0 41.94304 27.37948445 104.8576 76.89557333 180.00554667 22.71914667 34.36999111 46.60337778 67.57489778 72.23523555 100.19726222 33.20490667 42.52558222 68.15744 83.88608 104.8576 124.66403556 8.73813333 9.90321778 17.47626667 19.22389333 25.04931556 27.37948444 45.43829333-48.93354667 89.12896-99.61472 129.90691556-152.04352 25.63185778-32.62236445 49.51608889-65.82727111 72.23523555-100.19726222 49.51608889-75.73048889 76.89557333-138.06250667 76.89557333-180.00554667 0-142.14030222-125.24657778-257.48366222-279.03772444-257.48366222zM530.05880889 294.45613036c-105.44014222 57.67168-219.61841778 116.50844445-219.61841778 0 0-115.92590222 98.44963555-210.29774222 219.61841778-210.29774221s219.61841778 94.37184 219.61841778 210.29774221c0 115.92590222-114.17827555-57.67168-219.61841778 0z"  horiz-adv-x="1024" />

    
    <glyph glyph-name="jiuyuan" unicode="&#59039;" d="M510.158273 598.888569a256.552518 256.552518 0 0 1-256.552518-256.532054v-315.139888h516.747562v315.139888A256.511591 256.511591 0 0 1 513.841727 598.888569zM212.330616 445.247642a41.807194 41.807194 0 0 1-32.741807 49.11271l-120.980975 24.372182a41.827658 41.827658 0 0 1-49.11271-32.741807 42.257394 42.257394 0 0 1-0.368345-14.529176 41.827658 41.827658 0 0 1 33.028297-34.706315l120.960512-24.269864a41.786731 41.786731 0 0 1 49.112709 32.741806zM184.602398 725.53797l77.066027-96.36323a41.790823 41.790823 0 1 1 65.258513 52.223182L249.860911 777.740687A41.786731 41.786731 0 1 1 184.602398 725.53797z m332.615827-36.445724a41.766267 41.766267 0 0 1 42.768985 40.784013l-0.286491 123.354756a41.807194 41.807194 0 0 1-83.573461 2.046363l0.286491-123.354756a43.505675 43.505675 0 0 1 0.4502-7.325979 41.807194 41.807194 0 0 1 40.354276-35.422542z m193.483614-75.715427a41.807194 41.807194 0 0 1 58.976179 3.744844L851.184652 709.780975a41.801055 41.801055 0 1 1-62.741487 55.251799l-81.527098-92.638849a41.745803 41.745803 0 0 1 3.785772-58.976179z m304.232773-151.144365a41.786731 41.786731 0 0 1-47.618865 35.013269l-121.983693-18.560511a41.79287 41.79287 0 1 1 12.585132-82.632134l121.96323 18.560511a41.807194 41.807194 0 0 1 35.033733 47.618865z m-153.313509-530.703757a59.549161 59.549161 0 0 0-59.569624-59.528697H208.810871a59.528697 59.528697 0 1 0 0 119.057394h593.261071a59.528697 59.528697 0 0 0 59.549161-59.528697z m0 0"  horiz-adv-x="1024" />

    
    <glyph glyph-name="xiansuo" unicode="&#59037;" d="M990.50666667 759.25333333c0 56.53333333-45.97333333 102.50666667-102.50666667 102.50666667s-102.50666667-45.97333333-102.50666667-102.50666667c0-44.48 28.48-82.34666667 68.05333334-96.53333333v-636.37333333c0-14.4-5.65333333-27.94666667-16-38.18666667-10.34666667-10.34666667-23.89333333-16-38.18666667-16H787.2c-14.4 0-27.94666667 5.65333333-38.18666667 16s-16 23.89333333-16 38.18666667l-0.53333333 713.28c0 67.41333333-55.14666667 122.45333333-122.45333333 122.45333333H600.53333333c-67.41333333 0-122.45333333-55.14666667-122.45333333-122.45333333l0.53333333-710.4c0-14.4-5.65333333-27.94666667-16-38.18666667-10.34666667-10.34666667-23.89333333-16-38.18666666-16h-11.09333334c-14.4 0-27.94666667 5.65333333-38.18666666 16-10.34666667 10.34666667-16 23.89333333-16 38.18666667l0.53333333 710.61333333c0 67.41333333-55.14666667 122.45333333-122.45333333 122.45333333h-12.05333334c-67.41333333 0-122.45333333-55.14666667-122.45333333-122.45333333v-633.81333333c-40-13.97333333-68.8-52.05333333-68.8-96.85333334 0-56.53333333 45.97333333-102.50666667 102.50666667-102.50666666 56.53333333 0 102.50666667 45.97333333 102.50666666 102.50666666 0 44.37333333-28.37333333 82.34666667-68.05333333 96.53333334V739.73333333c0 14.4 5.65333333 27.94666667 16 38.18666667 10.34666667 10.34666667 23.89333333 16 38.18666667 16h12.05333333c14.4 0 27.94666667-5.65333333 38.18666667-16 10.34666667-10.34666667 16-23.89333333 16-38.18666667l-0.53333334-710.61333333c0-67.41333333 55.14666667-122.45333333 122.45333334-122.45333333h11.09333333c67.41333333 0 122.45333333 55.14666667 122.45333333 122.45333333l-0.53333333 710.4c0 14.4 5.65333333 27.94666667 16 38.18666667 10.34666667 10.34666667 23.89333333 16 38.18666667 16h9.49333333c14.4 0 27.94666667-5.65333333 38.18666667-16 10.34666667-10.34666667 16-23.89333333 16-38.18666667l0.53333333-713.28c0-67.41333333 55.14666667-122.45333333 122.45333333-122.45333333h12.05333334c67.41333333 0 122.45333333 55.14666667 122.45333333 122.45333333V662.4c40.10666667 14.08 68.90666667 52.16 68.90666667 96.85333333zM136.21333333-25.17333332999999c-18.88 0-34.24 15.36-34.24 34.24s15.36 34.24 34.24 34.24 34.24-15.36 34.24-34.24-15.36-34.24-34.24-34.24z m751.78666667 750.18666666c-18.88 0-34.24 15.36-34.24 34.24s15.36 34.24 34.24 34.24c18.88 0 34.24-15.36 34.24-34.24s-15.36-34.24-34.24-34.24z"  horiz-adv-x="1024" />

    
    <glyph glyph-name="wajueji" unicode="&#58890;" d="M509.08046222 257.16735999h373.86467556c28.19982222 0 53.97276445-11.65084445 72.46051555-30.10104889 0.48696889-0.52451555 0.96938667-0.52451555 0.96938667-1.01148444 18.00533333-18.44792889 29.13166222-43.77258667 29.13166222-70.9632 0-28.19754667-11.65425778-53.96821333-30.10218667-72.45596445-0.48583111-0.48241778-0.97052445-0.92956445-1.49845333-1.45635555-18.44679111-17.47854222-43.24693333-28.64469333-70.9632-28.64469334h-373.8624c-28.15886222 0-53.93066667 11.65198222-72.41955555 30.10104889l15.61713778 15.61713778-15.61827556-15.61713778c-0.48355555 0.52792889-0.96938667 1.01148445-0.96938667 1.45635556-17.96437333 18.49116445-29.17034667 43.29016889-29.17034667 71.00074667 0 28.16 11.69180445 53.48693333 30.13973334 71.97354666 18.49116445 18.45134222 44.26183111 30.10104889 72.42069333 30.10104889z m430.26545778 23.87057778c-149.20704 0-300.43818667-2.46897778-449.72373333 0-7.24309333 0-14.08 3.35872-18.45020445 9.66883555L341.87036445 488.57998221c-15.53635555 24.31544889-25.77294222 38.91882667-31.5960889 41.83381333-1.45635555 0.92956445-0.48696889-3.92533333-5.86752-10.72128-18.93489778-22.85909333-36.93909333-45.19139555-54.41649777-67.52483555-7.76874667-9.78944-15.53408-19.49809778-25.77066667-32.64625778-1.45635555-1.90122667-3.43950222-3.88209778-5.82542222-5.78332444-9.71093333-6.83804445-23.34492445-4.89585778-30.18296889 4.85262222-15.00842667 20.87367111-23.74769778 35.47818667-32.04209778 50.08497778-5.34072889 9.18528-10.19448889 17.96323555-17.03253333 28.15886222-5.82542222 8.2944-5.33959111 19.46055111 1.01148444 27.22929778l112.79587556 130.78755555c20.39011555 23.80913778 39.36483555 36.95843555 59.30894222 38.41479112 21.84760889 1.90236445 41.30816-9.70979555 60.76643556-35.48273778 16.99384889-23.34378667 42.24-57.85258667 67.03786666-92.84949334 16.50801778-22.85681778 32.60984889-45.68632889 47.17568-65.63157333 6.35107555 11.16501333 12.62364445 22.37326222 19.45941334 33.98314667 31.59608889 55.94339555 69.0176 121.09824 97.74421333 167.26243555 3.35872 7.28177778 10.64049778 12.17763555 19.38090667 12.17763556h64.2048c50.08839111 0.48469333 105.472 0.93070222 146.81998222 0h0.97052444c12.14008889 0 22.3744-9.26606222 22.3744-21.42208 0.96938667-28.17934222 0.48469333-56.86385778 0-85.56885333 0-20.87480889-0.52451555-41.81219555 0-62.22165334h81.15768889c40.37745778 0 64.64967111-35.51232 74.35946667-80.70485333 2.95367111-15.53408 4.89585778-32.08305778 4.89585778-49.07008 0-17.03253333-1.94218667-34.02524445-5.38168889-49.64352-9.66883555-46.60451555-34.46784-83.05777778-73.87249778-83.05777778z m-933.39420445-5.38168889c-17.96323555 86.01258667 29.17148445 149.73155555 90.90844445 203.21507556 0.97052445 0.96938667 1.94104889 1.94104889 2.95367111 2.42574222 10.15580445 6.79822222 23.74769778 3.84341333 30.10104889-6.35221334l58.78442667-89.92995555c2.46897778-2.87630222 3.47704889-6.31466667 3.92533333-9.67111111l-21.40387555-3.43950222 21.40273777 3.43950222c6.79594667-45.27217778 21.88743111-75.37095111 46.16192-95.80316445 25.28597333-21.4016 61.77905778-34.02410667 108.91264-44.21859555 4.89472-0.97507555 9.74848-3.39854222 13.14702223-7.76988445 7.28177778-9.26264889 5.82542222-23.38588445-3.39854223-30.62670222l-13.63399111 16.95061333 13.63399111-16.95061333c-88.47928889-71.52753778-180.88504889-76.34261333-249.37927111-45.26990222-25.81162667 12.17649778-48.66958222 29.21016889-65.66115556 50.57080889-18.00647111 20.91576889-30.66766222 46.20288-36.4544 73.42876444zM766.79395555 510.95324444H614.14968889c-3.44291555 0-7.32387555 0.97166222-10.72355556 2.9127111-10.72014222 5.82656-14.07886222 18.93603555-8.25116444 29.64707556l52.95786666 93.82229334c3.39740445 7.78695111 11.20711111 13.16750222 19.94752 13.16750222h98.71246223c12.13895111 0 21.84874667-10.23658667 21.84874667-21.88743112v-95.81226666a21.75658667 21.75658667 0 0 0-21.8476089-21.84988444zM882.94513778 213.43345777000002H509.08046222c-15.98122667 0-30.58688-6.31239111-41.30816-17.03253333-10.72014222-10.72241778-17.47626667-25.28824889-17.47626667-41.30816 0-15.53294222 6.27143111-30.14200889 16.50574223-40.33422223 0-0.52792889 0.48583111-1.01148445 0.97052444-1.01148444 10.23772445-10.68032 25.32693333-17.47626667 41.30816-17.47626667h373.86467556c15.57617778 0 30.14200889 6.31125333 40.37745777 16.50688l0.97393778 0.96938667c10.67804445 10.19448889 17.51608889 25.28597333 17.51608889 41.34570667 0 15.53749333-6.35107555 29.65504-16.58652444 40.33763555l-0.92956445 0.97052445c-10.72014222 10.72014222-25.28824889 17.03253333-41.35139555 17.03253333zM857.66371555 191.54488888000003c19.98392889 0 36.49080889-16.54556445 36.4908089-36.4544 0-20.38897778-16.50688-36.45098667-36.4908089-36.45098667-20.43221333 0-36.4544 16.06314667-36.4544 36.45212445 0 19.90769778 16.02218667 36.45212445 36.4544 36.45212444zM749.72046222 191.54488888000003c20.47317333 0 36.49422222-16.54556445 36.49422223-36.4544 0-20.38897778-16.02104889-36.45098667-36.49422223-36.45098667-19.86446222 0-36.45098667 16.06314667-36.45098667 36.45212445 0 19.90769778 16.58652445 36.45212445 36.45098667 36.45212444zM642.30513778 191.54488888000003c19.94524445 0 36.49308445-16.54556445 36.49308444-36.4544 0-20.38897778-16.54784-36.45098667-36.49308444-36.45098667-20.38897778 0-36.45098667 16.06314667-36.45098667 36.45212445 0 19.90769778 16.06200889 36.45212445 36.45098667 36.45212444zM534.40739555 191.54488888000003c20.39125333 0 36.45326222-16.54556445 36.45326223-36.4544 0-20.38897778-16.06200889-36.45098667-36.45326223-36.45098667-19.94638222 0-36.45326222 16.06314667-36.45326222 36.45212445 0 19.90769778 16.50688 36.45212445 36.45326222 36.45212444z"  horiz-adv-x="1024" />

    
    <glyph glyph-name="zhatuche" unicode="&#59005;" d="M382.66677728 644.01964247H225.50983111c-9.96794469 0-19.5475279-4.14252247-26.14967309-11.52139063L33.01199013 449.7094479c-7.37886815-8.15559111-11.52139061-18.77080494-11.52139063-29.64492642v-298.26161779c0-8.54395259 6.99050667-15.53445925 15.53445926-15.53445925h19.0297126c6.86105283 73.91813531 68.86943605 131.65454222 144.59992493 131.65454222s137.7388721-57.86586075 144.59992495-131.65454222h37.41215604c8.54395259 0 15.53445925 6.99050667 15.53445926 15.53445925V628.48518319c0 8.54395259-6.99050667 15.53445925-15.53445926 15.53445928z m-36.76488692-270.04068346c0-5.17815309-4.2719763-9.45012939-9.45012938-9.45012938H124.79475358c-5.17815309 0-9.45012939 4.2719763-9.45012938 9.45012938v66.02145184c0 6.73159902 2.45962272 13.20429037 6.99050666 18.12353581l101.75070815 111.84810667c4.14252247 4.53088395 9.96794469 7.1199605 16.05227457 7.1199605h96.18419358c5.17815309 0 9.45012939-4.2719763 9.45012938-9.45012939v-193.66292543zM200.65469629 97.85394568000004m-94.50129382 0a94.50129383 94.50129383 0 1 1 189.00258766 0 94.50129383 94.50129383 0 1 1-189.00258766 0ZM796.14230124 97.85394568000004m-94.50129383 0a94.50129383 94.50129383 0 1 1 189.00258765 0 94.50129383 94.50129383 0 1 1-189.00258765 0ZM437.5552 363.23429135000003v-196.89927111c0-33.14017975 27.05584987-60.19602963 60.19602963-60.19602963h153.79114666c6.86105283 73.91813531 68.86943605 131.65454222 144.59992495 131.65454222 75.60103506 0 137.7388721-57.86586075 144.59992493-131.65454222 31.84564148 1.4239921 57.34804543 27.96202667 57.34804544 60.0665758V363.23429135000003H437.5552zM559.24179753 754.57321085l-121.68659753-122.20441283v-231.33398914h438.84847408zM740.86551703 611.3972780199999l183.82443458-210.36246914H998.09027161V541.23330369L842.35731753 706.67529481z"  horiz-adv-x="1024" />

    
    <glyph glyph-name="pihuating" unicode="&#59007;" d="M982.69866667 57.57155554999997L896.45511111 143.92888889000005l-45.51111111-45.51111111-113.43644445 113.43644444C896.11377778 383.43111110999996 993.16622222 613.03466667 993.16622222 865.16622222c-252.13155555 0-481.73511111-97.05244445-653.312-255.77244444l-111.50222222 111.50222222 45.51111111 45.51111111-86.24355556 86.35733334c-39.82222222 39.82222222-104.33422222 39.82222222-144.04266666 0-39.82222222-39.82222222-39.82222222-104.33422222 0-144.04266667l86.35733333-86.35733333 45.51111111 45.5111111 111.38844445-111.38844444c-158.83377778-171.57688889-256-401.29422222-256-653.53955556 252.24533333 0 481.96266667 97.05244445 653.53955555 256l113.43644445-113.43644444-45.51111111-45.51111111 86.35733333-86.35733333c39.82222222-39.82222222 104.33422222-39.82222222 144.04266667 0 39.82222222 39.59466667 39.82222222 104.10666667 0 143.92888888zM470.58488889 219.24977778000004L347.47733333 342.35733332999996c-5.34755555 5.34755555-5.34755555 13.99466667 0 19.34222222l187.05066667 187.05066667c5.34755555 5.34755555 13.99466667 5.34755555 19.34222222 0L676.97777778 425.64266667c5.34755555-5.34755555 5.34755555-13.99466667 0-19.34222222L489.92711111 219.24977778000004c-5.34755555-5.23377778-13.99466667-5.23377778-19.34222222 0z"  horiz-adv-x="1024" />

    
    <glyph glyph-name="jiushengyi" unicode="&#59008;" d="M355.74923061 784.78904889V860.39008395H180.59820247v-250.36370173c0-94.37184-77.28393482-171.65577482-171.65577482-171.65577481v-139.81013333h476.39008396V618.44088098c-74.17704297 18.77080494-129.58328098 86.47515653-129.583281 166.34816791zM8.94242765-76.85562469000001c0-8.54395259 6.99050667-15.53445925 15.53445926-15.53445926h445.32116544c8.54395259 0 15.53445925 6.99050667 15.53445926 15.53445926V60.36543210000002h-476.39008396v-137.22105679zM8.94242765 244.18986667000001h476.39008396v-129.45382717h-476.39008396zM1015.05757235 438.37060741c-94.50129383 0-171.65577482 77.28393482-171.65577482 171.65577481V860.39008395H668.25076939v-75.60103506c0-79.87301136-55.27678419-147.44790914-129.583281-166.34816791V298.56047407999995h476.39008396V438.37060741zM538.66748839-76.85562469000001c0-8.54395259 6.99050667-15.53445925 15.53445926-15.53445926h445.32116544c8.54395259 0 15.53445925 6.99050667 15.53445926 15.53445926V60.36543210000002h-476.39008396v-137.22105679zM538.66748839 244.18986667000001h476.39008396v-129.45382717h-476.39008396z"  horiz-adv-x="1024" />

    
    <glyph glyph-name="sashuiche" unicode="&#59011;" d="M384.0889995 703.75297577H226.93205333c-9.96794469 0-19.5475279-4.14252247-26.14967309-11.52139063L34.43421235 509.4427812c-7.37886815-8.15559111-11.52139061-18.77080494-11.52139063-29.64492642v-298.26161779c0-8.54395259 6.99050667-15.53445925 15.53445926-15.53445925h19.0297126c6.86105283 73.91813531 68.86943605 131.65454222 144.59992493 131.65454222s137.7388721-57.86586075 144.59992495-131.65454222h37.41215604c8.54395259 0 15.53445925 6.99050667 15.53445926 15.53445925V688.21851649c0 8.54395259-6.99050667 15.53445925-15.53445926 15.53445928z m-36.76488692-270.04068346c0-5.17815309-4.2719763-9.45012939-9.45012938-9.45012938H126.2169758c-5.17815309 0-9.45012939 4.2719763-9.45012938 9.45012938v66.02145184c0 6.73159902 2.45962272 13.20429037 6.99050666 18.12353581l101.75070815 111.84810667c4.14252247 4.53088395 9.96794469 7.1199605 16.05227457 7.1199605h96.18419358c5.17815309 0 9.45012939-4.2719763 9.45012938-9.45012939v-193.66292543zM202.07691851 158.88181724000003m-94.50129382 0a94.50129383 94.50129383 0 1 1 189.00258766 0 94.50129383 94.50129383 0 1 1-189.00258766 0ZM797.56452346 158.88181724000003m-94.50129383 0a94.50129383 94.50129383 0 1 1 189.00258765 0 94.50129383 94.50129383 0 1 1-189.00258765 0ZM438.97742222 408.72770366v-183.95388839c0-33.14017975 27.05584987-60.19602963 60.19602963-60.19602962h153.79114666c6.86105283 73.91813531 68.86943605 131.65454222 144.59992495 131.65454221 75.60103506 0 137.7388721-57.86586075 144.59992493-131.65454221 31.84564148 1.4239921 57.34804543 27.96202667 57.34804544 60.06657579V408.72770366H438.97742222zM999.51249383 453.38927404c-35.34089482 0-53.8527921 14.49882864-67.31599013 25.11404245-9.96794469 7.89668347-14.11046717 11.13302914-26.53803456 11.13302916-12.55702124 0-16.82899753-3.23634569-26.92639606-11.26248297-13.33374419-10.48576-31.71618765-24.98458864-66.40981333-24.98458864-34.8230795 0-53.8527921 15.14609778-66.53926717 25.11404245-9.83849086 7.76722963-13.98101333 11.13302914-26.02021925 11.13302916-12.81592889 0-18.12353581-4.01306864-28.60929581-11.90975211-13.59265185-10.22685235-32.3634568-24.3373195-65.24472888-24.3373195-33.01072592 0-51.78153086 14.11046717-65.63309037 24.46677333-10.48576 7.89668347-15.79336691 11.78029827-28.09148049 11.78029828-11.9097521 0-16.6995437-3.62470717-26.92639606-11.52139063-13.72210569-10.48576-32.49291061-24.72568098-66.40981333-24.72568098v64.72691357c12.03920592 0 16.82899753 3.62470717 27.1853037 11.52139062 13.72210569 10.48576 32.49291061 24.72568098 66.15090569 24.72568098 33.78744889 0 52.81716148-14.23992098 66.7981748-24.72568098 10.61521383-7.89668347 15.40500543-11.52139061 26.79694223-11.52139062 11.26248297 0 15.92282075 3.49525333 26.27912691 11.26248296 13.98101333 10.48576 33.14017975 24.98458864 67.57489778 24.98458864 34.56417185 0 53.59388445-15.14609778 66.28035952-25.11404245 9.96794469-7.89668347 13.98101333-11.13302914 26.2791269-11.13302915 12.16865975 0 16.31118222 3.23634569 26.40858074 11.13302915 13.46319803 10.61521383 31.97509531 25.11404247 66.92762864 25.11404245 34.8230795 0 53.20552297-14.36937482 66.53926717-24.98458864 10.09739852-8.02613728 14.36937482-11.26248297 27.31475753-11.26248296v-64.72691357zM999.51249383 589.83360786c-35.34089482 0-53.8527921 14.49882864-67.31599013 25.11404247-9.96794469 7.89668347-14.11046717 11.13302914-26.53803456 11.13302913-12.55702124 0-16.82899753-3.23634569-26.92639606-11.26248297-13.33374419-10.48576-31.71618765-24.98458864-66.40981333-24.98458863-34.8230795 0-53.8527921 15.14609778-66.53926717 25.11404247-9.83849086 7.76722963-13.98101333 11.13302914-26.02021925 11.13302913-12.81592889 0-18.12353581-4.01306864-28.60929581-11.90975209-13.59265185-10.22685235-32.3634568-24.3373195-65.24472888-24.33731951-33.01072592 0-51.78153086 14.11046717-65.63309037 24.46677334-10.48576 7.89668347-15.79336691 11.78029827-28.09148049 11.78029826-11.9097521 0-16.6995437-3.62470717-26.92639606-11.52139061-13.72210569-10.48576-32.49291061-24.72568098-66.40981333-24.72568099v64.72691358c12.03920592 0 16.82899753 3.62470717 27.1853037 11.52139062 13.72210569 10.48576 32.49291061 24.72568098 66.15090569 24.72568099 33.78744889 0 52.81716148-14.23992098 66.7981748-24.72568099 10.61521383-7.89668347 15.40500543-11.52139061 26.79694223-11.52139062 11.26248297 0 15.92282075 3.49525333 26.27912691 11.26248297 13.98101333 10.48576 33.14017975 24.98458864 67.57489778 24.98458864 34.56417185 0 53.59388445-15.14609778 66.28035952-25.11404248 9.96794469-7.89668347 13.98101333-11.13302914 26.2791269-11.13302913 12.16865975 0 16.31118222 3.23634569 26.40858074 11.13302913 13.46319803 10.61521383 31.97509531 25.11404247 66.92762864 25.11404248 34.8230795 0 53.20552297-14.36937482 66.53926717-24.98458864 10.09739852-8.02613728 14.36937482-11.26248297 27.31475753-11.26248297v-64.72691358z"  horiz-adv-x="1024" />

    
    <glyph glyph-name="zhifajiluyi" unicode="&#59366;" d="M809.386667 770.56H755.2c-43.093333 34.986667-92.586667 57.173333-152.746667 57.173333-48.213333 0-93.013333-14.08-130.986666-37.973333L368.213333 770.133333h-152.746666c-49.493333 0-76.373333-38.826667-76.373334-87.04v-264.96c0-24.32 6.826667-46.08 20.053334-61.866666v-362.24c0-29.866667 24.746667-54.186667 54.613333-54.186667H810.666667c29.866667 0 54.613333 24.32 54.613333 54.186667V356.266667c13.226667 15.786667 20.053333 37.546667 20.053333 61.866666V683.946667c0 47.786667-26.88 86.613333-75.946666 86.613333z m-205.653334 9.386667c88.746667 0 161.28-71.68 161.28-159.573334s-72.533333-159.573333-161.28-159.573333c-89.173333 0-161.28 71.68-161.28 159.573333-0.426667 87.893333 72.106667 159.573333 161.28 159.573334zM224.426667 695.466667h133.546666c11.093333 0 20.053333-11.946667 20.053334-26.88s-8.96-26.88-20.053334-26.88H224.426667c-11.093333 0-20.053333 11.946667-20.053334 26.88s8.96 26.88 20.053334 26.88z m-1.706667-107.52h98.133333c10.24 0 18.346667-11.946667 18.346667-26.88s-8.106667-26.88-18.346667-26.88h-98.133333c-10.24 0-18.346667 11.946667-18.346667 26.88s8.106667 26.88 18.346667 26.88z m289.28-550.4c-144.213333 64.426667-134.826667 259.413333-134.826667 259.413333 94.72 14.08 123.733333 29.013333 131.84 34.986667h5.973334c8.106667-5.546667 37.12-20.906667 131.413333-34.986667 0 0.426667 9.813333-194.986667-134.4-259.413333z m-23.04 581.973333c0 62.72 51.626667 113.92 115.2 113.92s114.773333-51.2 114.773333-113.92S667.306667 505.6 604.16 505.6c-63.573333 0.426667-115.2 51.2-115.2 113.92z m84.053333-386.56c2.986667-0.426667 4.266667-1.706667 4.266667-3.413333 0-0.853333-0.853333-2.133333-2.133333-3.413334l-28.586667-26.026666 6.826667-36.693334v-1.28c0-0.853333-0.426667-2.133333-0.853334-2.56-0.426667-0.853333-1.28-0.853333-2.56-0.853333-0.853333 0-2.133333 0.426667-2.986666 0.853333l-35.413334 17.493334-35.413333-17.493334c-1.28-0.853333-2.133333-0.853333-2.986667-0.853333-0.853333 0-2.133333 0.426667-2.56 0.853333-0.426667 0.853333-0.853333 1.706667-0.853333 2.56v1.28l6.826667 36.693334-28.586667 26.026666c-1.28 1.28-2.133333 2.56-2.133333 3.413334 0 1.706667 1.706667 2.986667 4.266666 3.413333l39.68 5.12 17.493334 33.28c0.853333 2.133333 2.133333 2.986667 3.84 2.986667s2.56-0.853333 3.84-2.986667l17.493333-33.28 40.533333-5.12z"  horiz-adv-x="1024" />

    
    <glyph glyph-name="lianjie1" unicode="&#58881;" d="M836.92970809 402.1019336a207.36 207.36 0 1 1-292.79877595 292.79877595l-94.13005471-94.13005471a239.36 239.36 0 0 0 133.95430862-1.81019336l28.05799708 28.05799708a111.36 111.36 0 1 0 157.03427397-157.03427397l-142.10017875-142.10017874a111.36 111.36 0 0 0-157.48682231 0 110.08 110.08 0 0 0-31.22583545 67.42970265l-76.9332178-76.93321779a203.52 203.52 0 0 1 40.27680226-58.37873586 207.36 207.36 0 0 1 293.25132429 0zM478.51142284 179.44815033999998l-41.63444727-41.63444728a111.36 111.36 0 1 0-157.03427397 157.03427397L434.61423387 449.61950929a111.36 111.36 0 0 0 157.03427396 0.45254834 110.08 110.08 0 0 0 23.98506202-36.65641553 112.64 112.64 0 0 0 7.24077344-30.77328712l76.93321779 76.93321779a204.8 204.8 0 0 1-40.27680225 58.37873586 207.36 207.36 0 0 1-292.79877596-0.45254834l-155.2240806-155.22408061a207.36 207.36 0 1 1 292.79877595-292.79877595L611.56063479 176.73286029999997a238.72 238.72 0 0 0-133.04921195 2.71529004z"  horiz-adv-x="1024" />

    
    <glyph glyph-name="hangchejiluyi" unicode="&#59301;" d="M587.852 546.982c44.645-9.06 86.442-25.963 123.89-49.205h198.482c62.837 0 113.776-50.938 113.776-113.783v-303.21C1024 17.943 973.067-33 910.224-33H113.776C50.939-33 0 17.938 0 80.783v303.21c0 62.84 50.933 113.782 113.776 113.782h198.481c37.448 23.244 79.246 40.146 123.891 49.207V649.35H307.514a75.852 75.852 0 0 0-64.315 35.64l-25.125 40.186a49.555 49.555 0 0 0-7.536 26.27c0 27.369 22.186 49.555 49.554 49.555h503.816c9.29 0 18.393-2.612 26.27-7.537 23.206-14.508 30.257-45.082 15.748-68.288l-25.124-40.185a75.852 75.852 0 0 0-64.316-35.64H587.852v-102.368z m-75.824-87.117c-115.035 0-208.62-93.542-208.62-208.518 0-114.979 93.585-208.522 208.62-208.522 114.977 0 208.565 93.6 208.565 208.522 0 114.919-93.59 208.458-208.565 208.518z m0-360.25c-83.69 0-151.732 68.066-151.732 151.653 0 83.643 68.042 151.649 151.733 151.649 83.63 0 151.675-68.006 151.675-151.649 0-83.64-68.046-151.652-151.675-151.652z"  horiz-adv-x="1024" />

    
    <glyph glyph-name="jianshejindu" unicode="&#58929;" d="M949.76 688.64l-126.976 126.976c-10.752 10.752-28.16 10.752-38.4 0l-70.144-70.144c-10.752-10.752-10.752-28.16 0-38.4l126.464-126.976c10.752-10.752 28.16-10.752 38.4 0L949.248 650.24c11.264 10.24 11.264 27.648 0.512 38.4zM423.424 286.72c-7.68 7.68-19.968 7.68-27.136 0l-125.952-125.952c-7.68-7.68-19.968-7.68-27.136 0-7.68 7.68-7.68 19.968 0 27.136L368.64 313.856c7.68 7.68 7.68 19.968 0 27.136l-15.36 15.36c-7.68 7.68-19.968 7.68-27.136 0l-183.296-183.296L74.752-35.84c-5.12-14.848 9.216-29.184 24.064-24.576l208.896 67.584 183.296 183.296c7.68 7.68 7.68 19.968 0 27.136L423.424 286.72zM554.496 526.848c7.68-7.68 19.456-7.68 27.136 0l44.032 44.032c7.68 7.68 19.456 7.68 27.136 0s7.68-19.968 0-27.136l-44.032-43.52c-7.68-7.68-7.68-19.968 0-27.136L676.864 404.48c7.68-7.68 19.968-7.68 27.136 0l86.016 86.016c7.68 7.68 7.68 19.968 0 27.136l-138.24 137.728c-7.68 7.68-19.968 7.68-27.136 0l-86.016-86.016c-7.68-7.68-7.68-19.968 0-27.136l15.872-15.36zM465.408 543.744c10.752 20.48 16.896 41.472 16.896 60.416 0 104.448-99.328 205.824-204.288 205.824H276.48c-0.512 0-12.288-12.288-18.944-18.432 84.48-84.48 77.312-70.656 77.312-122.368 0-41.984-67.072-108.544-108.544-108.544h-22.016c-28.672 0-29.184 6.144-100.352 77.824-6.656-6.656-18.944-18.432-18.944-18.944C87.04 514.56 186.368 414.208 291.84 414.208c18.944 0 39.424 6.144 59.392 16.384l423.424-423.424c19.456-19.456 50.688-18.944 69.632 0l44.032 45.056c18.944 19.456 18.944 50.176 0 69.12-140.8 140.8-281.6 281.6-422.912 422.4z"  horiz-adv-x="1024" />

    
    <glyph glyph-name="yidongzhongduan" unicode="&#58900;" d="M781.725283 782.22245H242.274717c-39.548292 0-71.608392-32.0601-71.608391-71.608392v-653.227093c0-39.548292 32.0601-71.608392 71.608391-71.608392h539.449543c39.548292 0 71.608392 32.0601 71.608391 71.608392V710.614058c0.001023 39.548292-32.059077 71.608392-71.607368 71.608392zM512 42.666326c-31.418693 0-56.888775 25.470082-56.888775 56.888775 0 31.418693 25.470082 56.888775 56.888775 56.888775 31.418693 0 56.888775-25.470082 56.888775-56.888775 0-31.418693-25.470082-56.888775-56.888775-56.888775z m284.443876 170.667348H227.555101v512h568.888775v-512zM512 384c-31.418693 0-56.888775-25.470082-56.888775-56.888775s25.470082-56.888775 56.888775-56.888775c31.418693 0 56.888775 25.470082 56.888775 56.888775S543.418693 384 512 384z m0 170.666326c49.34432 0 94.699029-16.097566 131.980404-42.782945l32.9951 46.19355c-46.601718 33.357235-103.294082 53.479193-164.975504 53.479193-61.681423 0-118.372763-20.121958-164.975504-53.479193l32.9951-46.19355c37.281375 26.685379 82.636084 42.782945 131.980404 42.782945z m-98.985303-88.976496l32.995101-46.19355c18.640687 13.342689 41.318042 21.391473 65.990202 21.391472 24.67216 0 47.349514-8.048783 65.990202-21.391472l32.995101 46.19355c-27.961031 20.014545-61.97604 32.08772-98.985303 32.08772-37.00824 0-71.024272-12.073175-98.985303-32.08772z"  horiz-adv-x="1024" />

    
    <glyph glyph-name="shebei1" unicode="&#58887;" d="M61.719 21.667c0-41.438 33.562-75 75-75h750c41.437 0 75 33.562 75 75v206.25c0 41.437-33.563 75-75 75H562.344V499.792c0 25.875-21 46.875-46.875 46.875s-46.875-21-46.875-46.875v-196.875H136.719c-41.438 0-75-33.563-75-75v-206.25z m93.75 103.125c0 25.875 21 46.875 46.875 46.875s46.875-21 46.875-46.875-21-46.875-46.875-46.875-46.875 21-46.875 46.875z m168.75 0c0 25.875 21 46.875 46.875 46.875s46.875-21 46.875-46.875-21-46.875-46.875-46.875-46.875 21-46.875 46.875z m191.25 571.875c-108.75 0-196.875-88.125-196.875-196.875 0-25.875 21-46.875 46.875-46.875s46.875 21 46.875 46.875c0 57 46.125 103.125 103.125 103.125s103.125-46.125 103.125-103.125c0-25.875 21-46.875 46.875-46.875s46.875 21 46.875 46.875c0 108.75-88.125 196.875-196.875 196.875z m0 150c-191.625 0-346.875-155.25-346.875-346.875 0-25.875 21-46.875 46.875-46.875s46.875 21 46.875 46.875c0 139.875 113.25 253.125 253.125 253.125s253.125-113.25 253.125-253.125c0-25.875 21-46.875 46.875-46.875s46.875 21 46.875 46.875c0 191.625-155.25 346.875-346.875 346.875z"  horiz-adv-x="1024" />

    
    <glyph glyph-name="che" unicode="&#58914;" d="M1349.99260167 345.335742V-51.200000000000045a74.322581 74.322581 0 0 0-74.32258-74.322581h-145.341936a74.322581 74.322581 0 0 0-74.32258 74.322581v56.336516H402.66047267v-56.336516a74.322581 74.322581 0 0 0-74.32258-74.322581h-145.341936a74.322581 74.322581 0 0 0-74.32258 74.322581V345.335742H10.66666667v11.660387a81.672258 81.672258 0 0 0 81.672258 81.672258h20.017548l146.101678 350.637419a66.064516 66.064516 0 0 0 48.078451 39.390968l229.59071 45.700129a1123.047226 1123.047226 0 0 0 455.713032-3.584L1182.48602167 829.770323a66.064516 66.064516 0 0 0 48.772129-43.685162l115.778064-347.400258h19.290839a81.672258 81.672258 0 0 0 81.672258-81.672258v-11.660387h-98.00671zM361.13892467 765.340903a33.032258 33.032258 0 0 1-31.331097-22.594064l-90.475355-271.409549c223.215484-43.553032 391.993806-65.337806 506.334968-65.337806 114.341161 0 283.102968 21.784774 506.334968 65.337806L1161.51053767 742.730323a33.032258 33.032258 0 0 1-31.331097 22.594064H361.13892467z m-139.99071-449.899355a24.774194 24.774194 0 0 1-34.188387-16.152774l-18.696258-69.698064a24.774194 24.774194 0 0 1 21.553549-31.083355l212.909419-20.645161a25.715613 25.715613 0 0 1 13.130323 48.986838l-194.725162 88.576z m1014.70142 0l-194.725162-88.592516a25.715613 25.715613 0 0 1 13.130323-48.986838l212.925936 20.645161a24.774194 24.774194 0 0 1 21.537032 31.066839l-18.679742 69.71458a24.774194 24.774194 0 0 1-34.188387 16.136258z"  horiz-adv-x="1453" />

    
    <glyph glyph-name="shipin" unicode="&#59138;" d="M925.696 619.52l-137.728-80.896c-19.968-14.336-37.888-23.04-44.032-38.912V590.336c0 55.808-45.568 101.376-101.376 101.376h-486.4c-55.808 0-101.376-45.568-101.376-101.376v-413.696c0-55.808 45.568-101.376 101.376-101.376h486.4c55.808 0 101.376 45.568 101.376 101.376v116.224c6.144-18.432 24.576-33.28 44.032-45.568l137.728-80.896c24.576-17.408 44.032-7.168 44.032 22.528V592.384c0 27.136-19.968 41.472-44.032 27.136zM309.248 485.888c-5.12-23.552-23.552-43.52-48.64-48.64-43.52-8.192-80.384 30.208-72.192 72.192 5.12 23.552 23.552 43.52 48.64 48.64 43.52 7.68 80.384-28.672 72.192-72.192z"  horiz-adv-x="1024" />

    
    <glyph glyph-name="shouchidanbing" unicode="&#59120;" d="M609.083077 699.076923V738.579692a39.266462 39.266462 0 0 0 78.493538 0V699.076923h41.314462C772.214154 699.076923 807.384615 663.827692 807.384615 620.307692v-351.389538a78.769231 78.769231 0 0 0-45.410461-71.443692c-0.039385 0 0 0 0 0V-49.230769c0-43.52-35.170462-78.769231-78.532923-78.769231H340.558769c-43.323077 0-78.493538 35.249231-78.493538 78.769231v246.665846A78.848 78.848 0 0 0 216.615385 268.918154V620.307692c0 43.52 35.131077 78.769231 78.493538 78.769231h78.493539V856.733538a39.266462 39.266462 0 0 0 78.493538 0V699.076923h39.266462V738.579692a39.266462 39.266462 0 0 0 78.493538 0V699.076923h39.227077z m119.808-78.769231H295.108923v-351.389538a78.769231 78.769231 0 0 0 45.449846-71.483077V-49.230769h342.882462v246.665846a78.769231 78.769231 0 0 0 45.449846 71.483077V620.307692zM412.987077 541.538462h195.977846a39.384615 39.384615 0 0 0 39.384615-39.384616v-118.153846a39.384615 39.384615 0 0 0-39.384615-39.384615H412.987077a39.384615 39.384615 0 0 0-39.384615 39.384615v118.153846a39.384615 39.384615 0 0 0 39.384615 39.384616z m39.108923-315.076924c21.661538 0 39.266462-17.565538 39.266462-39.266461v-0.236308a39.266462 39.266462 0 1 0-78.493539 0v0.236308c0 21.661538 17.565538 39.266462 39.227077 39.266461z m0-118.153846c21.661538 0 39.266462-17.565538 39.266462-39.266461v-0.236308a39.266462 39.266462 0 1 0-78.493539 0v0.236308c0 21.661538 17.565538 39.266462 39.227077 39.266461z m117.76 118.153846c21.661538 0 39.227077-17.565538 39.227077-39.266461v-0.236308a39.266462 39.266462 0 0 0-78.493539 0v0.236308c0 21.661538 17.565538 39.266462 39.266462 39.266461z m0-118.153846c21.661538 0 39.227077-17.565538 39.227077-39.266461v-0.236308a39.266462 39.266462 0 0 0-78.493539 0v0.236308c0 21.661538 17.565538 39.266462 39.266462 39.266461z"  horiz-adv-x="1024" />

    
    <glyph glyph-name="sgongxiangdanche" unicode="&#58945;" d="M593.6 620.7c37.3 0 67.5 30 67.5 67.2 0 37.3-30.3 67.5-67.5 67.5-37.1 0-67.4-30.3-67.4-67.5s30.2-67.2 67.4-67.2z m2.8-163.7c-9.7-0.2-20.4 4.8-28 16.9l-43.8 68.7-90.3-89.6 83.8-44.1c34.4-16.6 29.3-46.8 29.3-46.8v-189.9c0-21.3-17.5-38.9-39-38.9-21.3 0-38.7 17.5-38.7 38.9v152L324.4 405c-17.4 9.7-29.2 28.2-29.2 49.4 0 14.5 5.3 27.9 14.5 37.8l142.7 142.9c17.5 20.1 42.2 16.9 42.2 16.9 30 0 45.6-26.1 45.6-26.1l74.1-116.1 112.6 0.2c40.3 0 40.3-52.7 0-52.7l-130.5-0.3z m0 0M776.1 380.3c-101.6 0-184-82.4-184-184s82.4-183.8 184-183.8c101.3 0 183.7 82.2 183.7 183.8 0 101.8-82.4 184-183.7 184z m-0.1-317.8c-73.8 0-133.6 59.9-133.6 133.8S702.3 330.1 776 330.1s133.8-59.9 133.8-133.8S849.7 62.5 776 62.5zM247.9 380.3c-101.2 0-183.7-82.4-183.7-184s82.5-183.8 183.7-183.8c101.8 0 184.1 82.2 184.1 183.8 0 101.7-82.3 184-184.1 184z m0.1-317.8c-73.8 0-133.7 59.9-133.7 133.8 0 73.8 59.9 133.8 133.7 133.8 73.8 0 133.8-60.1 133.8-133.8 0.1-73.9-59.8-133.8-133.8-133.8z m0 0"  horiz-adv-x="1024" />

    
    <glyph glyph-name="shebei" unicode="&#59017;" d="M515.7 143.5c-15.9 0-29.8 5-44.9 11.4l-0.8 0.4-0.8 0.4-367.3 181.7c-21.5 10.6-35.5 31.8-36.7 55.3-0.1 1-0.1 2.1-0.1 3.1-0.1 24 13.2 46.2 34.7 57.8L466.1 652c0.1 0.1 0.3 0.2 0.6 0.5 12.3 10.4 28 16.1 44.4 16 16.2-0.1 31.9-5.9 44.2-16.4 0.4-0.4 0.6-0.5 0.7-0.6l370-203.9c17.6-9.7 29.6-26.3 33.1-45.6 0.2-1 0.3-2 0.5-3 3.7-27.9-11.1-55.1-36.8-67.6L559.1 155.3c-16.7-8.6-30.7-11.8-43.4-11.8z m-20.8 66.3c19-8 22.2-8.6 37.2-1l0.6 0.3 363.8 176.2c2.3 1.1 3.8 3.5 3.5 5.6 0 0.1 0 0.3-0.1 0.4-0.2 1.4-1.4 2.8-3 3.6L526.9 599c-3.6 2-7.1 4.4-10.6 7.4-3.1 2.7-7.9 2.8-10.9 0.3-3.5-3-7-5.4-10.6-7.4L128.3 400.8c-1.9-1.1-3.2-3-3.2-4.8v-0.4c0.1-1.7 1.4-3.5 3.4-4.5l366.4-181.3z m-28.8 442.1zM919.1 519.6l-377.8-183c-20.6-10.7-28.7-12.1-54.3 0.4L106.5 525.2c-23.5 12-27.5 37.3-0.4 54.3L483.8 784c19.5 12.1 34.8 10.2 54.3-0.4l380.6-209.8c31.3-17 30.3-42 0.4-54.2zM918.7 221.5L805.3 284 541.2 156c-20.6-10.7-28.7-12.1-54.3 0.4L219.7 288.6l-113.6-61.5c-27.1-17.1-23.1-42.4 0.4-54.4l380.4-188.3c25.7-12.4 33.8-11.1 54.3-0.4L919 167c30 12.4 31 37.4-0.3 54.5z"  horiz-adv-x="1024" />

    
    <glyph glyph-name="lixian" unicode="&#58899;" d="M176.06731852 469.59881484c-7.24941431 0-14.49882864 2.20071506-20.71261235 6.86105283-15.53445925 11.3919368-18.90025876 33.39908741-7.37886814 48.93354666 41.0368632 55.66514569 95.14856297 101.88016197 156.50967703 133.46689582 63.43237531 32.75181827 134.8908879 50.09863111 206.60830814 50.09863111 71.58796642 0 142.78757136-17.21735902 206.09049285-49.71026963 61.10220642-31.45728 115.21390617-77.41338864 156.25076938-132.69017285 11.52139061-15.53445925 8.28504494-37.41215605-7.24941432-48.93354666-15.53445925-11.52139061-37.41215605-8.28504494-48.93354666 7.24941432-72.75305086 97.99654717-184.34224987 154.17950815-306.15830125 154.17950815-120.52151309 0-235.21760395-57.99531457-306.80557037-155.08568494-6.86105283-9.45012939-17.47626667-14.36937482-28.22093431-14.36937481zM594.85044939 138.19701729999997c-8.93231408 0-17.86462815 3.3657995-24.725681 10.22685235l-165.70089876 165.70089876c-13.59265185 13.59265185-13.59265185 35.7292563 0 49.45136198 13.59265185 13.59265185 35.7292563 13.59265185 49.45136198 0l165.70089876-165.70089876c13.59265185-13.59265185 13.59265185-35.7292563 0-49.45136198-6.73159902-6.86105283-15.66391309-10.22685235-24.72568098-10.22685235zM429.14955061 138.19701729999997c-8.93231408 0-17.86462815 3.3657995-24.72568098 10.22685235-13.59265185 13.59265185-13.59265185 35.7292563 0 49.45136198l165.44199112 165.44199111c13.59265185 13.59265185 35.7292563 13.59265185 49.45136197 0 13.59265185-13.59265185 13.59265185-35.7292563 0-49.45136197L453.74577778 148.42386965000003c-6.73159902-6.86105283-15.66391309-10.22685235-24.59622717-10.22685235zM296.97719309 387.00727311c-7.37886815 0-14.88719013 2.33016889-21.23042766 7.11996049-15.40500543 11.65084445-18.25298963 33.65799506-6.60214518 48.93354667 27.96202667 36.76488691 64.59745975 67.1865363 105.76377678 88.02860247C418.01652148 552.96707952 464.61989925 564.1001086599999 513.29453827 564.1001086599999s95.2780168-11.13302914 138.38614123-32.88127211c41.16631703-20.84206617 77.6722963-51.26371555 105.63432297-88.02860245 11.65084445-15.40500543 8.80286025-37.28270222-6.60214519-48.93354667-15.40500543-11.65084445-37.28270222-8.80286025-48.93354667 6.60214518-45.3088395 59.41930667-113.9193679 93.4656632-188.48477234 93.46566322-74.56540445 0-143.30538667-34.04635653-188.48477235-93.46566322-6.86105283-9.0617679-17.34681283-13.8515595-27.83257283-13.8515595z"  horiz-adv-x="1024" />

    
    <glyph glyph-name="ludeng" unicode="&#59016;" d="M585.8-48.5h-455c-15.7 0-28.5 12.8-28.5 28.5s12.8 28.5 28.5 28.5h455c15.7 0 28.5-12.8 28.5-28.5s-12.9-28.5-28.5-28.5zM883 731.5H360.8c-15.7 0-28.5 12.8-28.5 28.5s12.8 28.5 28.5 28.5H883c15.7 0 28.5-12.8 28.5-28.5s-12.9-28.5-28.5-28.5zM883 692.4H551.1c-15.7 0-28.5 12.8-28.5 28.5V760c0 15.7 12.8 28.5 28.5 28.5H883c15.7 0 28.5-12.8 28.5-28.5v-39.1c0-15.7-12.9-28.5-28.5-28.5zM467.8-14.5h-219c-6.6 0-12 5.4-12 12l20 246c0 6.6 5.4 12 12 12h179c6.6 0 12-5.4 12-12l20-246c0-6.6-5.4-12-12-12zM372.3 233.5h-28c-6.6 0-12 5.4-12 12v531c0 6.6 5.4 12 12 12h28c6.6 0 12-5.4 12-12v-531c0-6.6-5.4-12-12-12zM730.2 501.9h-28c-6.6 0-12 5.4-12 12v88.5c0 6.6 5.4 12 12 12h28c6.6 0 12-5.4 12-12v-88.5c0-6.6-5.4-12-12-12zM894.2 557.3l-19.8-19.8c-4.7-4.7-12.3-4.7-17 0l-62.6 62.6c-4.7 4.7-4.7 12.3 0 17l19.8 19.8c4.7 4.7 12.3 4.7 17 0l62.6-62.6c4.6-4.7 4.6-12.4 0-17zM557 537.5l-19.8 19.8c-4.7 4.7-4.7 12.3 0 17l62.6 62.6c4.7 4.7 12.3 4.7 17 0l19.8-19.8c4.7-4.7 4.7-12.3 0-17L574 537.5c-4.7-4.7-12.3-4.7-17 0z"  horiz-adv-x="1024" />

    
    <glyph glyph-name="iconfonttubiao_dingwei" unicode="&#58895;" d="M712.341 649.018a278.637 278.637 0 0 1-400.682 0c-110.496-114.278-110.496-295.585 0-409.866L512.001 34 712.34 239.15200000000004c110.497 114.281 110.497 295.588 0.001 409.866Z"  horiz-adv-x="1024" />

    
    <glyph glyph-name="jinru" unicode="&#58967;" d="M322.9 708.3L647 384 323 59.7c-17.2-17.3-17.2-45.5 0-62.8 17.2-17.3 45.5-17.3 62.7 0l355.4 355.7c17.2 17.3 17.2 45.5 0 62.8L385.7 771.1c-17.2 17.3-45.5 17.3-62.7 0-17.3-17.3-17.3-45.6-0.1-62.8z"  horiz-adv-x="1024" />

    
    <glyph glyph-name="gengduo" unicode="&#58925;" d="M166.6 796.4h228.6c37.9 0 68.6-30.7 68.6-68.6v-228.6c0-37.9-30.7-68.6-68.6-68.6H166.6c-38 0-68.6 30.8-68.6 68.6V727.8c0 38 30.7 68.6 68.6 68.6z m457.3 0h228.6c38 0 68.6-30.7 68.6-68.6v-228.6c0-37.9-30.7-68.6-68.6-68.6H623.9c-37.9 0-68.6 30.7-68.6 68.6V727.8c0 38 30.7 68.6 68.6 68.6zM166.6 339.2h228.6c37.9 0 68.6-30.7 68.6-68.6V42c0-37.9-30.7-68.6-68.6-68.6H166.6c-38 0-68.6 30.7-68.6 68.6V270.5c0 37.9 30.7 68.7 68.6 68.7z m685.9-45.8c12.7 0 22.8-10.3 22.8-22.8V42c0-12.7-10.3-22.8-22.8-22.8H623.9c-12.7 0-22.8 10.3-22.8 22.8V270.5c0 12.7 10.3 22.8 22.8 22.8h228.6z m0 45.8H623.9c-37.9 0-68.6-30.7-68.6-68.6V42c0-37.9 30.7-68.6 68.6-68.6h228.6c37.9 0 68.6 30.7 68.6 68.6V270.5c0.1 37.9-30.6 68.7-68.6 68.7z"  horiz-adv-x="1024" />

    
    <glyph glyph-name="luanduiluanfang" unicode="&#59013;" d="M134 350s69 153 275 153 305-233 305-233l31-64s42-13 52 32-67 74-67 74 53 19 32 72c-12 35-70 6-70 6s28 70.9-54 70c-3 99-115 63-115 63s9 68-87 88c-60 21-118-60-118-60s-84 61-126-35c-75 3-39-80-39-80s-46-11-44-45 25-41 25-41zM657 520s8-9 10-34c54-11 54.2-28.5 56-57 49 7 72.8-9 74.9-45S783 319.5 783 319.5s58-28.5 45-78.5-46-63-46-63 7-21 63-14 62 59 62 59 26 110-84 203-166 94-166 94zM653 309s-97 166-257 166c-287-23-279-311-279-311h619c-32 49-83 145-83 145z m-158-61c-11.6 0-21 9.4-21 21s9.4 21 21 21 21-9.4 21-21-9.4-21-21-21z m35 68c-11.6 0-21 9.4-21 21s9.4 21 21 21 21-9.4 21-21-9.4-21-21-21z m65-59c-11.6 0-21 9.4-21 21s9.4 21 21 21 21-9.4 21-21-9.4-21-21-21z"  horiz-adv-x="1024" />

    
    <glyph glyph-name="deng" unicode="&#59014;" d="M207 595m-94 0a94 94 0 1 1 188 0 94 94 0 1 1-188 0ZM818 595m-94 0a94 94 0 1 1 188 0 94 94 0 1 1-188 0ZM755.5-71h-455c-15.7 0-28.5 12.8-28.5 28.5s12.8 28.5 28.5 28.5h455c15.7 0 28.5-12.8 28.5-28.5S771.2-71 755.5-71zM620-37H401c-6.6 0-12 5.4-12 12l20 246c0 6.6 5.4 12 12 12h179c6.6 0 12-5.4 12-12l20-246c0-6.6-5.4-12-12-12zM525 211h-28c-6.6 0-12 5.4-12 12V754c0 6.6 5.4 12 12 12h28c6.6 0 12-5.4 12-12v-531c0-6.6-5.4-12-12-12zM754.5 807h-489c-49.8 0-90.5-40.7-90.5-90.5V634h66v70.5c0 22.8 18.7 41.5 41.5 41.5h459c22.8 0 41.5-18.7 41.5-41.5V634h62v82.5c0 49.8-40.7 90.5-90.5 90.5z"  horiz-adv-x="1024" />

    
    <glyph glyph-name="xiaofangshuan" unicode="&#59015;" d="M711.9-60h-398c-14.3 0-26 11.7-26 26v5c0 14.3 11.7 26 26 26h398c14.3 0 26-11.7 26-26v-5c0-14.3-11.7-26-26-26zM692.4 486h-359c-14.3 0-26 11.7-26 26v70c0 14.3 11.7 26 26 26h359c14.3 0 26-11.7 26-26v-70c0-14.3-11.7-26-26-26zM323 189h-67c-8.8 0-16 7.2-16 16V339c0 8.8 7.2 16 16 16h67v-166zM215 234h-47c-6.6 0-12 5.4-12 12v52c0 6.6 5.4 12 12 12h47v-76zM701 189h67c8.8 0 16 7.2 16 16V339c0 8.8-7.2 16-16 16h-67v-166zM809 234h47c6.6 0 12 5.4 12 12v52c0 6.6-5.4 12-12 12h-47v-76zM673.9 635h-322c0 88.9 72.1 161 161 161s161-72.1 161-161zM512.9 756c-12.4 0-22.5 10.1-22.5 22.5v28c0 12.4 10.1 22.5 22.5 22.5s22.5-10.1 22.5-22.5v-28c0-12.4-10.1-22.5-22.5-22.5zM351.9 459v-435h322V459h-322z m161-300c-53 0-96 43-96 96s43 96 96 96 96-43 96-96-43-96-96-96zM512.9 255m-67.9 0a67.9 67.9 0 1 1 135.8 0 67.9 67.9 0 1 1-135.8 0Z"  horiz-adv-x="1024" />

    
    <glyph glyph-name="tudui" unicode="&#59012;" d="M103.5 201.6L389 577.8c7.1 9.3 21.1 9.3 28.1-0.1l281.5-376.2c8.7-11.6 0.4-28.1-14.1-28.1h-567c-14.5 0-22.8 16.6-14 28.2zM919.9 231.4H732.2L580.4 429.9l103.5 135.4c4.6 6 11.7 9.5 19.3 9.4 7.5 0 14.7-3.7 19.1-9.7l218.1-292.7c5.8-7.8 6.7-18.1 2.4-26.8s-13.2-14.1-22.9-14.1z m-167.9 40h139.3L702.9 524.2l-72.1-94.3L752 271.4z"  horiz-adv-x="1024" />

    
    <glyph glyph-name="jianzhuanquan" unicode="&#58886;" d="M213.84 21.168000000000006h598.24V320.288c0 165.2-133.92 299.2-299.12 299.2s-299.2-133.936-299.2-299.2z m85.472 299.12a213.664 213.664 0 1 0 427.312 0v-213.648H299.312z m212.464 383.808c23.6 0 42.736 15.312 42.736 34.192v102.56c0 18.88-19.2 34.176-42.736 34.176s-42.736-15.296-42.736-34.176v-102.56c0-18.88 19.136-34.192 42.736-34.192z m325.84-118.304l72.528 72.528c13.344 13.344 10.64 37.696-6.048 54.4s-41.04 19.392-54.4 6.048l-72.528-72.528c-13.344-13.344-10.64-37.696 6.048-54.4s41.056-19.392 54.4-6.048z m102.672-607.36H85.648a42.736 42.736 0 1 1 0-85.456h854.64a42.736 42.736 0 1 1 0 85.456z m49.6 384.816h-102.624c-18.88 0-34.192-19.12-34.192-42.736s15.312-42.72 34.192-42.72h102.544c18.88 0 34.192 19.12 34.192 42.72S1008.688 363.20000000000005 989.808 363.20000000000005z m-803.824 222.24c13.344-13.36 37.696-10.656 54.4 6.032s19.392 41.04 6.048 54.4L173.968 718.4c-13.344 13.344-37.696 10.64-54.4-6.048s-19.392-41.04-6.048-54.4zM170.928 320c0 23.6-15.312 42.736-34.192 42.736H34.192C15.296 362.79999999999995 0 343.664 0 320s15.296-42.736 34.192-42.736h102.544c18.88 0.064 34.192 19.2 34.192 42.736z"  horiz-adv-x="1024" />

    
    <glyph glyph-name="wushuijinggai-" unicode="&#58885;" d="M512 896C228.977778 896 0 667.022222 0 384s228.977778-512 512-512 512 228.977778 512 512S795.022222 896 512 896z m423.822222-467.911111H556.088889V807.822222c200.533333-19.911111 359.822222-179.2 379.733333-379.733333zM470.755556 809.244444v-381.155555H88.177778C108.088889 628.622222 268.8 789.333333 470.755556 809.244444z m-384-466.488888H469.333333v-382.577778C267.377778-21.333333 106.666667 139.377778 86.755556 342.755556z m469.333333-382.577778V342.755556h381.155555c-19.911111-201.955556-180.622222-362.666667-381.155555-382.577778z"  horiz-adv-x="1024" />

    
    <glyph glyph-name="huwaiguanggao-" unicode="&#58974;" d="M183.466667 896v-1024h654.222222V896h-654.222222z m398.222222-896h-142.222222V768h142.222222v-768z"  horiz-adv-x="1024" />

    
    <glyph glyph-name="turangcanshu" unicode="&#58928;" d="M906.1 174L631.6 553.7l-105-145.3L392.4 594 117.9 214.3h268.3L357.1 174z"  horiz-adv-x="1024" />

    
    <glyph glyph-name="touxiang-nan1" unicode="&#58891;" d="M512 384m-512 0a512 512 0 1 1 1024 0 512 512 0 1 1-1024 0ZM604.8 210.5v56.3c31.6 20.9 56.4 54.9 69.9 102.9 2.1-0.6 4.5-0.9 7.2-0.9 27.1 0 51.6 46.2 51.6 73.3 0 22.4-15.1 41.4-35.6 47.2-4.2 1.2-4.5 45.4-8.4 65.9-4.6 24.3-12.8 41.2-28.6 59.6 14.5-2.9 24 12.4 21.4 15-3.7 3.7-12.4-7.7-43.9 18.6-24.2 15.6-58.9 29-97.3 29-14.8 0-56.3 4.6-78.3-20.2-26.3 12.4-53.6-2.3-68-12.8-18.9-13.8-51.5-48.2-61.4-79.9-12.4-39.4-0.1-75.8-2.6-76.8-18.2-7.2-31.1-24.9-31.1-45.6 0-27.1 24.5-73.3 51.6-73.3 2.1 0 3.9 0.2 5.6 0.5 14.9-46.8 41.4-82.2 74.9-103.9v-55.3s39.7-30.2 85.3-53.9c31.3 13.8 87.4 53.9 87.4 53.9l0.3 0.4zM736.5 148.9c-29.9 15.2-60.2 27.2-94.3 35.7-22.8-126.7-76.8-231.7-76.8-231.7l-38 125.8 30.7 28.3v19.2l-40.7 30-45.6-27.1v-24.9l32.2-25.6s-6.6-21.2-38.8-117C427.5 17.4 401.5 139 393.4 181c-55.9-16.3-104.2-41.9-141.7-68-31.2-21.7-57.8-52.7-71.9-82.8C210.5 1 321-101.3 512-101.3s299.8 100.6 342.9 141.9c-23.5 40.5-74.4 85.9-118.4 108.3z"  horiz-adv-x="1024" />

    
    <glyph glyph-name="emergency" unicode="&#58950;" d="M211.244755 35.67632400000002h609.694306V400.367632c0 12.787213 0 25.57442599-2.55744299 38.361639-7.672328 43.476523-25.57442599 81.83816199-51.14885101 117.130869-35.804196 43.476523-79.280719 76.723277-132.475524 94.11388599-61.378621 23.016983-124.803197 25.57442599-188.73926099 12.78721301-61.378621-12.787213-114.573427-40.919081-158.04995001-84.39560501-48.591409-48.591409-74.16583401-106.901099-74.16583399-175.952048v-364.69130798c-2.557443 3.068931-2.557443-2.04595399-2.55744301-2.04595401z m369.806194 369.806193c28.131868 48.591409 71.608392 71.608392 127.360639 74.165835v-300.755245c-53.70629401 2.557443-96.671329 23.016983-124.803196 69.050949-33.246753 52.683317-33.246753 106.38961001-2.557443 157.538461zM318.657343 479.136863c56.263736-2.557443 99.228771-25.57442599 127.36063901-71.608391 30.689311-53.70629401 30.689311-106.901099-2.55744301-160.607393-28.131868-46.03396601-71.608392-66.49350599-124.803196-69.05094901V479.136863zM135.032967-35.93206799999996c-17.90209799 0-33.246753-10.22977001-40.91908101-28.131868s0-43.476523 15.34465501-56.263736c10.22977001-5.114885 20.45954-7.672328 30.689311-7.672328h760.071928c23.016983 2.557443 48.591409 25.57442599 40.919081 53.70629401-5.114885 23.016983-23.016983 38.36163801-46.033966 38.36163799h-33.24675301M287.968032 706.23776199c2.557443-2.557443 2.557443-2.557443 5.114885 2e-8 15.344655 10.22977001 33.246753 20.45954 51.148851 30.68931099 2.557443 2.557443 2.557443 2.557443 2.557443 5.11488501-12.787213 23.016983-28.131868 43.476523-40.91908101 66.49350699-2.557443 2.557443-2.557443 5.114885-5.11488499 7.672327-10.22977001 12.787213-23.016983 15.344655-35.804196 10.22976999s-23.016983-17.90209799-23.01698299-33.24675299c0-5.114885 2.557443-12.787213 5.11488499-17.902098 12.787213-23.016983 25.57442599-46.03396601 40.919081-69.05094901z m196.411588 66.49350701H542.689311c5.114885 0 5.114885 0 5.114885 5.11488499v86.95304701c0 28.131868-30.689311 38.36163801-51.148851 25.57442499-12.787213-7.672328-15.344655-17.90209799-15.344656-30.68930999v-81.83816199c0.511489-5.114885 0.511489-5.114885 3.068931-5.11488501z m201.014985-33.246754c17.90209799-10.22977001 33.246753-20.45954 51.148852-33.24675301h5.11488499c15.344655 23.016983 30.689311 48.591409 43.47652301 71.608392 15.344655 25.57442599-5.114885 51.148851-30.68931101 51.14885101h-5.11488499c-10.22977001-2.557443-17.90209799-7.672328-23.01698301-17.902098-15.344655-23.016983-28.131868-46.03396601-43.47652299-69.05094901 0 0 0-2.557443 2.557442-2.55744299zM152.423576 548.187812c10.22977001 17.90209799 20.45954 33.246753 30.689311 51.148851 0 2.557443 0 2.557443-2.557442 5.114885-23.016983 12.787213-46.03396601 28.131868-69.050949 40.919081-2.557443 2.557443-5.114885 2.557443-7.672328 5.11488499-5.114885 2.557443-7.672328 2.557443-12.787213 2.55744301h-2.557443c-23.016983-2.557443-38.36163801-30.689311-25.574425-51.14885101 2.557443-5.114885 7.672328-10.22977001 12.787213-12.78721299 23.016983-12.787213 46.03396601-28.131868 69.050949-40.919081 5.114885-2.557443 5.114885-2.557443 7.672327 0z m816.335665 81.83816199c-5.114885 15.344655-17.90209799 23.016983-33.246753 23.01698301-7.672328 0-12.787213-2.557443-20.459541-7.672328-23.016983-12.787213-46.03396601-28.131868-69.05094901-40.919081-2.557443-2.557443-2.557443-2.557443-2.55744299-5.114885 10.22977001-15.344655 20.45954-33.246753 30.68931099-48.591408 2.557443-5.114885 2.557443-5.114885 5.11488501-2.557443 20.45954 12.787213 38.36163801 23.016983 58.82117899 35.804196 5.114885 2.557443 10.22977001 5.114885 15.34465501 10.22976999 15.344655 7.672328 20.45954 20.45954 15.344656 35.804196z m0 0"  horiz-adv-x="1024" />

    
    <glyph glyph-name="shexiangtou" unicode="&#58894;" d="M214.4 211.2H105.6v137.6L0 368v-441.6l105.6 35.2v153.6h169.6l92.8 124.8-121.6 64-32-92.8z m550.4-28.8l246.4 156.8-768 505.6H153.6L32 652.8v-64l675.2-409.6h57.6v3.2z m-92.8-32L89.6 528l-60.8-64L704 54.4h60.8l32 32 32 92.8s-89.6-64-92.8-64c-35.2 22.4-64 35.2-64 35.2z"  horiz-adv-x="1024" />

    
    <glyph glyph-name="wangyuanj" unicode="&#58962;" d="M438.119072 722.405651h147.761856v-404.020182H438.119072zM215.959637 896h200.460141v-139.495459H215.959637zM5.166498 259.487386c-1.0333-1.0333-1.0333-3.099899-1.033299-4.133198v-365.788093c0-9.299697 8.266398-17.566095 17.566095-17.566095h315.156407c9.299697 0 17.566095 8.266398 17.566095 17.566095V241.921292h17.566095c13.432896 0 24.799193 12.399596 24.799193 26.865792V732.738648H148.795156L5.166498 259.487386zM607.580222 896h200.460141v-139.495459H607.580222zM1018.833502 259.487386c1.0333-1.0333 1.0333-3.099899 1.033299-4.133198v-365.788093c0-9.299697-8.266398-17.566095-17.566095-17.566095H687.144299c-9.299697 0-17.566095 8.266398-17.566095 17.566095V241.921292h-17.566095c-13.432896 0-24.799193 12.399596-24.799193 26.865792V732.738648h247.991928l143.628658-473.251262z"  horiz-adv-x="1024" />

    
    <glyph glyph-name="shangshuijinggai-" unicode="&#58883;" d="M512 896C228.977778 896 0 667.022222 0 384s228.977778-512 512-512 512 228.977778 512 512S795.022222 896 512 896z m0-85.333333c220.444444 0 402.488889-167.822222 423.822222-382.577778H88.177778C109.511111 642.844444 291.555556 810.666667 512 810.666667z m0-853.333334C290.133333-42.666667 108.088889 126.577778 86.755556 342.755556h849.066666C915.911111 126.577778 733.866667-42.666667 512-42.666667z"  horiz-adv-x="1024" />

    
    <glyph glyph-name="pin" unicode="&#58986;" d="M512 864C313.22 864 152 702.78 152 504s360-600 360-600 360 401.22 360 600S710.78 864 512 864z m0-600c-132.54 0-240 107.46-240 240S379.46 744 512 744s240-107.46 240-240-107.46-240-240-240z"  horiz-adv-x="1024" />

    
    <glyph glyph-name="shuiweijiance" unicode="&#60238;" d="M927.3494528 851.61232953v-99.26779676H755.23404345v-70.9044042h172.11540935v-170.17336491H755.23404345v-70.90556928h172.11540935v-170.17219982H755.23404345v-70.90556928h172.11540935v-174.11566706c-26.69379243 17.34333895-54.60427321 32.30453077-71.71475342 32.30452964-40.86326386 0-130.97970005-99.26779563-172.11308032-99.26779563-41.13570816 0-131.25214549 99.26779563-172.11540935 99.26779563s-112.23222158-99.26779563-157.77129358-99.26779563c-45.53790805 0-121.8132059 99.26779563-172.11308146 99.26779563S23.74937714-27.613229509999996 23.74937714-27.613229509999996v-85.08551851s107.47141917 85.08551851 157.77129358 85.08551851 126.57517227-99.26779563 172.11308032-99.26779676c45.54023709 0 116.90919481 99.26779563 157.77129472 99.26779676s130.97970005-99.26779563 172.11540821-99.26779676c41.13454421 0 131.25098155 99.26779563 172.11308032 99.26779676 40.86326386 0 143.4283429-85.08551851 143.42834404-85.08551851V851.61232953h-71.71242553zM317.77812139 213.46453958999996c138.62329799 0 250.99989219 111.10867741 250.99989106 248.1694902 0 137.05964885-243.82783374 432.52164039-243.82783375 432.5216404S66.77822919 598.69367865 66.77822919 461.63402979c0-137.06081394 112.37659421-248.16949021 250.9998922-248.1694902z m179.28513763 257.03326834c0-3.29262649-0.07335026-6.56429511-0.21423104-9.815007-4.02729643 62.75201024-63.74631879 174.85266717-114.75990528 254.72563541 50.09146653-73.89780651 114.97413632-181.79419363 114.97413632-244.91062841z m-326.50675427 99.86740793c-16.85200669-36.92212451-29.18305565-71.77762589-32.05187926-99.00582912 0.26895246 26.99418055 13.15769799 62.0091904 32.05187926 99.00582912z"  horiz-adv-x="1024" />

    
    <glyph glyph-name="manhole-cover" unicode="&#58888;" d="M246.576687 335.31288300000006l-1.570552 10.993865h-86.380368l3.141104-15.705521c23.558282-146.06135 142.920245-265.423313 288.981595-288.981595l15.705522-3.141104v81.668711l-10.993865 1.570552c-109.93865 21.98773-191.607362 105.226994-208.883436 213.595092zM248.147239 432.687117C268.564417 539.484663 350.233129 622.723926 455.460123 644.711656l10.993865 1.570553v81.668711l-15.705522-3.141104c-146.06135-23.558282-265.423313-142.920245-288.981595-288.981595l-3.141104-15.705522h86.380368l3.141104 12.564418zM772.711656 434.257669l1.570553-10.993865h86.380368l-3.141105 15.705521c-23.558282 146.06135-142.920245 265.423313-288.981595 288.981595l-15.705521 3.141105V644.711656l10.993865-1.570552c108.368098-23.558282 190.03681-105.226994 208.883435-208.883435zM695.754601 377.71779100000003v12.564418c-6.282209 97.374233-83.239264 172.760736-180.613497 172.760736-50.257669 0-95.803681-18.846626-131.92638-54.969325-34.552147-34.552147-54.969325-83.239264-54.969325-131.926381 0-100.515337 83.239264-182.184049 186.895705-182.184049 98.944785 3.141104 180.613497 83.239264 180.613497 183.754601z m-183.754601-97.374233c-56.539877 0-100.515337 43.97546-100.515337 100.515338 0 56.539877 43.97546 100.515337 100.515337 100.515337 56.539877 0 100.515337-43.97546 100.515337-100.515337 0-56.539877-43.97546-100.515337-100.515337-100.515338zM777.423313 335.31288300000006c-21.98773-103.656442-103.656442-186.895706-208.883436-213.595092l-9.423313-3.141104v-80.098159l15.705522 3.141104C720.883436 65.17791399999999 840.245399 184.53987700000005 863.803681 330.601227l3.141104 15.705521h-86.380368l-3.141104-10.993865zM512 896C229.300613 896 0 666.699387 0 384s229.300613-512 512-512 512 229.300613 512 512S794.699387 896 512 896zM78.527607 384v3.141104V384z m469.595092-431.90184v40.834355c0 18.846626-15.705521 34.552147-34.552147 34.552148-18.846626 0-34.552147-15.705521-34.552147-34.552148v-40.834355C266.993865-30.625766999999996 97.374233 137.423313 80.09816 349.447853h42.404907c18.846626 0 34.552147 15.705521 34.552148 34.552147 0 18.846626-15.705521 34.552147-34.552148 34.552147H80.09816C97.374233 630.576687 265.423313 800.196319 477.447853 815.90184v-40.834355c0-18.846626 15.705521-34.552147 34.552147-34.552148s34.552147 15.705521 34.552147 34.552148V815.90184C758.576687 798.625767 926.625767 629.006135 943.90184 418.552147h-39.263803c-18.846626 0-34.552147-15.705521-34.552147-34.552147 0-18.846626 15.705521-34.552147 34.552147-34.552147h39.263803C926.625767 138.99386500000003 758.576687-30.625766999999996 548.122699-47.90183999999999z"  horiz-adv-x="1024" />

    
    <glyph glyph-name="shanchulaji" unicode="&#59321;" d="M380.01777778 71.79377778000003V484.92088889c0 6.37155555-2.048 11.71911111-6.144 15.81511111-4.096 4.096-9.44355555 6.144-15.81511111 6.144H314.02666667c-6.37155555 0-11.71911111-2.048-15.81511112-6.144-4.096-4.096-6.144-9.44355555-6.144-15.81511111v-413.12711111c0-6.37155555 2.048-11.71911111 6.144-15.81511111 4.096-4.096 9.44355555-6.144 15.81511112-6.144h44.032c6.37155555 0 11.71911111 2.048 15.81511111 6.144 4.096 4.096 6.144 9.44355555 6.144 15.81511111z m176.01422222 0V484.92088889c0 6.37155555-2.048 11.71911111-6.144 15.81511111-4.096 4.096-9.44355555 6.144-15.81511111 6.144h-44.032c-6.37155555 0-11.71911111-2.048-15.81511111-6.144-4.096-4.096-6.144-9.44355555-6.144-15.81511111v-413.12711111c0-6.37155555 2.048-11.71911111 6.144-15.81511111 4.096-4.096 9.44355555-6.144 15.81511111-6.144h44.032c6.37155555 0 11.71911111 2.048 15.81511111 6.144 3.98222222 4.096 6.144 9.44355555 6.144 15.81511111z m175.90044445 0V484.92088889c0 6.37155555-2.048 11.71911111-6.144 15.81511111-4.096 4.096-9.44355555 6.144-15.81511112 6.144h-44.032c-6.37155555 0-11.71911111-2.048-15.81511111-6.144-4.096-4.096-6.144-9.44355555-6.144-15.81511111v-413.12711111c0-6.37155555 2.048-11.71911111 6.144-15.81511111 4.096-4.096 9.44355555-6.144 15.81511111-6.144H709.97333333c6.37155555 0 11.71911111 2.048 15.81511112 6.144 4.096 4.096 6.144 9.44355555 6.144 15.81511111zM358.05866667 718.1653333300001h307.88266666l-32.99555555 80.44088889c-3.18577778 4.096-7.05422222 6.59911111-11.71911111 7.50933333H403.456c-4.55111111-0.91022222-8.41955555-3.41333333-11.71911111-7.50933333l-33.67822222-80.44088889z m637.72444444-21.95911111v-55.75111111c0-6.37155555-2.048-11.71911111-6.144-15.81511111-4.096-4.096-9.44355555-6.144-15.81511111-6.144h-65.99111111v-604.38755555c0-38.00177778-10.80888889-70.88355555-32.31288889-98.64533334-21.504-27.76177778-47.44533333-41.52888889-77.71022222-41.52888889H226.07644445c-30.26488889 0-56.09244445 13.42577778-77.71022223 40.16355556-21.504 26.85155555-32.31288889 59.16444445-32.31288889 97.28V618.496h-65.99111111c-6.37155555 0-11.71911111 2.048-15.81511111 6.144-4.096 4.096-6.144 9.44355555-6.144 15.81511111v55.75111111c0 6.37155555 2.048 11.71911111 6.144 15.81511111 4.096 4.096 9.44355555 6.144 15.81511111 6.144h212.30933333L310.61333333 832.96711111c6.82666667 16.95288889 19.22844445 31.40266667 37.09155556 43.34933334 17.86311111 11.94666667 35.95377778 17.86311111 54.272 17.8631111h219.93244444c18.31822222 0 36.40888889-5.91644445 54.272-17.8631111 17.86311111-11.94666667 30.26488889-26.39644445 37.09155556-43.34933334l48.128-114.80177778h212.30933333c6.37155555 0 11.71911111-2.048 15.81511111-6.144 4.20977778-4.096 6.25777778-9.44355555 6.25777778-15.81511111z"  horiz-adv-x="1024" />

    
    <glyph glyph-name="wulianwang" unicode="&#58981;" d="M532.038 895.59c-72.843 2.902-147.462-9.781-219.07-40.003-71.612-30.223-132.753-74.836-181.491-129.051 72.432 1.391 145.775 16.28 216.488 46.125C418.679 802.506 480.512 844.665 532.038 895.59z m-90.411-344.856c140.577 59.33 256.27 153.169 341.414 267.521a514.78 514.78 0 0 1-132.678 58.566 690.967 690.967 0 0 0-37.939-42.388c-64.186-66.02-140.084-117.793-225.586-153.878-85.501-36.086-175.545-54.347-267.624-54.274a690.536 690.536 0 0 0-56.838 2.386 514.877 514.877 0 0 1-50.598-135.916c141.329-18.772 289.272-1.346 429.849 57.983z m93.662-221.926c169.034 71.339 310.196 181.335 417.572 315.38-25.017 42.507-55.54 80.322-90.25 112.904a928.479 928.479 0 0 0-77.503-90.688c-86.659-89.14-189.144-159.047-304.608-207.777-115.463-48.729-237.044-73.388-361.367-73.29A929.085 929.085 0 0 0 0.091 393.072a508.255 508.255 0 0 1 17.933-143.423c170.947-16.582 348.231 7.821 517.265 79.159zM998.663 542.69a1163.002 1163.002 0 0 0-40.869-44.315c-109.135-112.26-238.211-200.3-383.632-261.674-145.423-61.376-298.545-92.431-455.112-92.308a1159.323 1159.323 0 0 0-60.26 1.633c28.541-54.499 65.835-101.974 109.398-141.4 154.353 5.572 310.229 38.724 460.763 102.255 150.535 63.533 283.03 152.085 394.704 258.787 2.141 58.714-5.854 118.554-24.992 177.022zM305.351-84.291c124.479-54.902 270.44-60.368 405.675-3.294 135.234 57.073 233.14 165.464 280.646 292.949-98.29-77.292-206.657-141.131-323.847-190.59-117.19-49.456-238.526-82.564-362.474-99.065z"  horiz-adv-x="1024" />

    
    <glyph glyph-name="46603" unicode="&#58955;" d="M512 599.1683915599999c-159.72656344 0-289.65957187-129.9330075-289.65957187-289.65957187 0-159.72656344 129.9330075-289.65957187 289.65957187-289.65957188 159.72899813 0 289.65957187 129.9330075 289.65957187 289.65957188C801.65957187 469.23538406 671.72899813 599.1683915599999 512 599.1683915599999zM562.48352562 281.0394225l-0.16551937 0.33103969c-9.931185-17.70817969-28.6349175-29.79355594-50.31557156-29.79355594-31.9453125 0-57.93191437 25.98903562-57.93191438 57.93434812 0 20.19340969 10.26222469 37.90158938 25.82108157 48.163815l-0.16551938 0.33347344 191.0097975 109.24303875L562.48352562 281.0394225zM826.47049625 565.4680828099999l36.64558687 36.64558688c6.47474344 6.47230969 6.47474344 16.94873625 0 23.40400687l-35.1047925 35.10722719c-6.469875 6.47230969-16.94873625 6.47230969-23.40400687 0l-36.64558688-36.64558687c-59.76967031 48.71149031-133.6425975 80.75660156-214.58175843 88.94982937L553.37993844 781.24012219l49.65592687 0c18.28993313 0 33.10395094 14.81401781 33.10395094 33.10395093l0 16.55197594c0 18.28993313-14.81401781 33.10395094-33.10395094 33.10395094l-182.07173062 0c-18.28993313 0-33.10395094-14.81401781-33.10395094-33.10395094l0-16.55197594c0-18.28993313 14.81401781-33.10395094 33.10395094-33.10395093l49.65592687 0 0-68.29393782C389.68090063 704.7359175 315.81040812 672.69080625 256.04073687 623.996355L219.39515 660.64194188c-6.47230969 6.47230969-16.94873625 6.47230969-23.40400688 0L160.88391688 625.53471469c-6.47230969-6.47230969-6.47230969-16.94873625-1e-8-23.40400688l36.64558688-36.64558687c-56.89011375-69.81769313-91.05290437-158.88192656-91.05290437-255.95926313 0-223.95066281 181.57517156-405.52583437 405.52340062-405.52583437 223.94579438 0 405.52096594 181.57517156 405.52096594 405.52583437C917.52096594 406.58615625 883.37764813 495.65038969 826.47049625 565.4680828099999zM512-13.254703130000053c-177.93373687 0-322.76352281 144.82978594-322.76352281 322.76595657 0 177.93373687 144.82978594 322.76352281 322.76352281 322.76352281 177.93130312 0 322.76108813-144.82978594 322.76108813-322.76352281C834.76108813 131.57508281000003 689.93130312-13.254703130000053 512-13.254703130000053z"  horiz-adv-x="1024" />

    
    <glyph glyph-name="zhengjie" unicode="&#58916;" d="M822.68918518-82.03377778000004H347.33473185L263.44865185 228.65540740999995l-83.88608-307.58229333C86.3558163-69.60621036999999 14.8973037 8.066085919999978 14.8973037 104.37973333000002v279.62026667h994.2053926v-279.62026667c0-102.52743111-83.88608-186.41351111-186.41351112-186.41351111zM14.8973037 601.4824296300001c0 34.17581037 27.96202667 62.13783703 62.13783705 62.13783704h310.68918517V818.96485925c0 18.64135111 12.42756741 31.06891852 31.06891853 31.06891853h186.4135111c18.64135111 0 31.06891852-12.42756741 31.06891853-31.06891853v-155.34459258h310.68918517c34.17581037 0 62.13783703-27.96202667 62.13783705-62.13783704v-155.3445926H14.8973037v155.3445926z"  horiz-adv-x="1024" />

    
    <glyph glyph-name="anquan1" unicode="&#58880;" d="M929.39130406 783.02608688C929.39130406 783.02608688 929.39130406 293.80173936999995 929.39130406 293.80173936999995 929.39130406 264.45913031 922.42086969 235.28347781000002 908.52173937 206.27478281000003 894.58086969 177.18260906 876.38260906 149.09217375000003 853.84347781 121.79478281000002 831.3043475 94.53913031000002 805.55130406 68.70260905999999 776.62608687 44.36869593999995 747.65913031 19.99304343999995 718.31652219-1.711304059999975 688.55652219-20.744347500000003 658.75478281-39.81913030999999 629.82956563-55.67999999999995 601.73913031-68.28521719000003 573.64869594-80.89043436999998 549.02260906-89.53043437999997 527.86086969-94.24695655999994 527.86086969-94.24695655999994 517.84347781-96 517.84347781-96 517.84347781-96 508.66086969-94.24695655999994 508.66086969-94.24695655999994 486.95652219-89.53043437999997 461.78782625-80.89043436999998 433.11304344-68.28521719000003 404.43826062-55.67999999999995 374.67826063-39.81913030999999 343.79130406-20.744347500000003 312.9043475-1.711304059999975 282.60173938 19.99304343999995 252.8 44.36869593999995 223.04 68.70260905999999 196.45217375 94.53913031000002 173.07826062 121.79478281000002 149.7043475 149.09217375000003 130.79652219 177.18260906 116.35478281 206.27478281000003 101.82956562 235.28347781000002 94.60869594 264.45913031 94.60869594 293.80173936999995 94.60869594 293.80173936999995 94.60869594 783.02608688 94.60869594 783.02608688 94.60869594 783.02608688 128.83478281 788.32695656 128.83478281 788.32695656 128.83478281 788.32695656 512.83478281 864 512.83478281 864 512.83478281 864 904.34782625 788.32695656 904.34782625 788.32695656 904.34782625 788.32695656 929.39130406 783.02608688 929.39130406 783.02608688 929.39130406 783.02608688 929.39130406 783.02608688 929.39130406 783.02608688ZM512.96 793.16869594C512.96 793.16869594 508.32695656 794.12869594 508.32695656 794.12869594 508.32695656 794.12869594 178.75478281 735.06782625 178.75478281 735.06782625 178.75478281 735.06782625 178.75478281 426.40695656 178.75478281 426.40695656 178.75478281 426.40695656 512.96 426.40695656 512.96 426.40695656 512.96 426.40695656 512.96 793.16869594 512.96 793.16869594 512.96 793.16869594 512.96 793.16869594 512.96 793.16869594ZM845.24521719 426.40695656C845.24521719 426.40695656 512.96 426.40695656 512.96 426.40695656 512.96 426.40695656 512.96-12.939130309999996 512.96-12.939130309999996 534.33043438-7.76347781000004 557.57913031 0.1252171899999439 582.70608687 10.768695940000043 607.79130406 21.412173749999965 632.5843475 33.975652500000024 657.04347781 48.500869689999945 681.5443475 63.02608687999998 705.08521719 79.13739094000005 727.74956563 96.87652218999995 750.41391313 114.61565250000001 770.40695656 133.69043437000005 787.8956525 154.01739094000004 805.34260906 174.30260906 819.24173937 195.42260906 829.63478281 217.37739094000005 840.06956562 239.29043437999997 845.24521719 261.57913031 845.24521719 284.15999999999997 845.24521719 284.15999999999997 845.24521719 426.40695656 845.24521719 426.40695656 845.24521719 426.40695656 845.24521719 426.40695656 845.24521719 426.40695656Z"  horiz-adv-x="1024" />

    
    <glyph glyph-name="wenhua" unicode="&#58884;" d="M512 596.82209223a140.48976555 140.48976555 0 0 0-72.23523555 19.80643556 147.7229989 147.7229989 0 0 0-53.59388445 53.59388444A140.48976555 140.48976555 0 0 0 366.36444445 742.45764779c0 25.63185778 6.60214557 49.71027001 19.80643555 72.23523555 13.20428999 22.52496555 31.0689189 40.38959445 53.59388445 53.59388445 22.52496555 13.20428999 46.60337778 19.80643555 72.23523555 19.80643555s49.71027001-6.60214557 72.23523555-19.80643555c22.52496555-13.20428999 40.38959445-31.0689189 53.59388445-53.59388445 13.20428999-22.52496555 19.80643555-46.60337778 19.80643555-72.23523555s-6.60214557-49.71027001-19.80643555-72.23523556c-13.20428999-22.52496555-31.0689189-40.38959445-53.59388445-53.59388444-22.52496555-13.20428999-46.60337778-19.80643555-72.23523555-19.80643556z m0-170.10232889a642.54407111 642.54407111 0 0 0 436.90666667 170.10232889v-532.44359111c-82.33263445 0-161.94673778-15.53445888-238.84231112-46.60337778A649.34039666 649.34039666 0 0 1 512-109.21908110000004a649.34039666 649.34039666 0 0 1-198.06435555 126.99420444 626.03870777 626.03870777 0 0 1-238.84231112 46.60337778V596.82209223a642.54407111 642.54407111 0 0 0 436.90666667-170.10232889z"  horiz-adv-x="1024" />

    
    <glyph glyph-name="lvseshishang" unicode="&#58893;" d="M889.691502 883.282484a32.01843 32.01843 0 0 1-53.345093-3.412266c-93.154863-163.22006-213.835339-219.408707-320.184297-269.000307-69.72397-32.416527-135.523833-63.126922-184.489852-118.746858-54.653128-62.103242-80.188252-145.931245-80.188252-263.654424 0-45.098783 3.810364-95.088481 11.317349-151.106515-140.642232-33.838305-262.801357-14.331517-262.801357-14.331517V-65.156865c156.850496 0 286.971575 36.966216 381.889442 76.889729a675.514936 675.514936 0 0 1 174.025569 97.818293c233.0009 179.940163 308.241367 466.058672 308.241367 466.058672 0-305.795909-222.820973-571.042724-507.29022-665.960592 87.524624-27.923711 168.793427-40.264739 242.27089-36.795602 82.519967 3.924106 155.713074 27.525613 217.531961 70.349552 131.542856 90.993761 207.010807 267.294174 207.010807 483.631842 0 174.992377-50.160311 345.60568-134.045185 456.447455z"  horiz-adv-x="1024" />

    


  </font>
</defs>
</svg>
